<?xml version="1.0" encoding="UTF-8" standalone="no"?>
<!-- Created with Inkscape (http://www.inkscape.org/) -->

<svg
   xmlns:dc="http://purl.org/dc/elements/1.1/"
   xmlns:cc="http://creativecommons.org/ns#"
   xmlns:rdf="http://www.w3.org/1999/02/22-rdf-syntax-ns#"
   xmlns:svg="http://www.w3.org/2000/svg"
   xmlns="http://www.w3.org/2000/svg"
   xmlns:sodipodi="http://sodipodi.sourceforge.net/DTD/sodipodi-0.dtd"
   xmlns:inkscape="http://www.inkscape.org/namespaces/inkscape"
   width="600"
   height="600"
   id="svg3973"
   sodipodi:version="0.32"
   inkscape:version="0.91 r13725"
   sodipodi:docname="font.svg"
   inkscape:output_extension="org.inkscape.output.svg.inkscape"
   version="1.0"
   inkscape:export-filename="/Users/tommaso/neutrino/resources/icons/font.png"
   inkscape:export-xdpi="90"
   inkscape:export-ydpi="90">
  <defs
     id="defs3975">
    <inkscape:perspective
       sodipodi:type="inkscape:persp3d"
       inkscape:vp_x="0 : 526.18109 : 1"
       inkscape:vp_y="0 : 1000 : 0"
       inkscape:vp_z="744.09448 : 526.18109 : 1"
       inkscape:persp3d-origin="372.04724 : 350.78739 : 1"
       id="perspective3981" />
  </defs>
  <sodipodi:namedview
     id="base"
     pagecolor="#ffffff"
     bordercolor="#666666"
     borderopacity="1.0"
     gridtolerance="10000"
     guidetolerance="10"
     objecttolerance="10"
     inkscape:pageopacity="0.0"
     inkscape:pageshadow="2"
     inkscape:zoom="0.98166667"
     inkscape:cx="300"
     inkscape:cy="300"
     inkscape:document-units="px"
     inkscape:current-layer="layer1"
     showgrid="true"
     inkscape:window-width="1276"
     inkscape:window-height="755"
     inkscape:window-x="4"
     inkscape:window-y="401"
     inkscape:window-maximized="1"
     fit-margin-top="0"
     fit-margin-left="0"
     fit-margin-right="0"
     fit-margin-bottom="0"
     showguides="true"
     inkscape:guide-bbox="true">
    <inkscape:grid
       type="xygrid"
       id="grid3144"
       empspacing="5"
       visible="true"
       enabled="true"
       snapvisiblegridlinesonly="true" />
    <sodipodi:guide
       orientation="1,0"
       position="-4.03692,-3.15274"
       id="guide3201" />
    <sodipodi:guide
       orientation="0,1"
       position="-4.03692,-3.15274"
       id="guide3203" />
  </sodipodi:namedview>
  <metadata
     id="metadata3978">
    <rdf:RDF>
      <cc:Work
         rdf:about="">
        <dc:format>image/svg+xml</dc:format>
        <dc:type
           rdf:resource="http://purl.org/dc/dcmitype/StillImage" />
      </cc:Work>
    </rdf:RDF>
  </metadata>
  <g
     inkscape:label="Layer 1"
     inkscape:groupmode="layer"
     id="layer1"
     transform="translate(-461.34375,212.875)">
    <path
       inkscape:connector-curvature="0"
       id="text3423"
       style="fill:#000000"
       d="m 868.25913,-164.61666 -32.69685,113.648014 -3.6759,15.24709 c -0.34327,1.45891 -0.51491,2.68898 -0.51491,3.69019 0,1.78789 0.55782,3.34693 1.68777,4.69142 0.88679,1.00121 2.00243,1.50182 3.34692,1.50182 1.45891,0 3.34692,-0.88679 5.69263,-2.67468 4.36244,-3.2468 10.16949,-9.94064 17.43545,-20.11013 l 5.70694,4.01916 c -7.70937,11.61411 -15.64758,20.51063 -23.80034,26.64665 -8.16706,6.0359 -15.70478,9.0538496 -22.64178,9.0538496 -4.79153,0 -8.42452,-1.2300596 -10.88465,-3.6901896 -2.3457,-2.34571 -3.51855,-5.80706 -3.51855,-10.38404 0,-5.47808 1.23006,-12.68684 3.67589,-21.62627 l 3.53286,-12.57241 c -14.64636,19.10892 -28.10556,32.468 -40.40621,40.06294 -8.82501,5.47808 -17.47837,8.2099696 -25.9744,8.2099696 -8.15276,0 -15.19703,-3.3469196 -21.11994,-10.0550696 -5.9229,-6.82257 -8.88364,-16.14818 -8.88364,-27.99113 0,-17.76443 5.30787,-36.48717 15.92362,-56.153914 10.73304,-19.78116 24.30666,-35.58893 40.7266,-47.43332 12.85848,-9.38711 24.97319,-14.07995 36.37275,-14.07995 6.82257,0 12.45798,1.78788 16.93485,5.36365 4.57698,3.57578 8.03833,9.49868 10.38404,17.76729 l 6.0359,-19.10748 26.66095,-4.02346 m -59.67247,8.7163 c -7.15154,0 -14.76078,3.35264 -22.79912,10.0565 -11.39955,9.49867 -21.56905,23.57434 -30.50847,42.23986 -8.82501,18.665534 -13.24466,35.528864 -13.24466,50.618624 0,7.59494 1.90231,13.63084 5.70693,18.1077 3.79032,4.34814 8.15276,6.53651 13.07302,6.53651 12.17192,0 25.41658,-8.99664 39.71966,-26.98992 19.10892,-23.91476 28.66338,-48.444544 28.66338,-73.589374 0,-9.49295 -1.84509,-16.36415 -5.53529,-20.61074 -3.67589,-4.24659 -8.71058,-6.36916 -15.07545,-6.36916" />
    <path
       inkscape:connector-curvature="0"
       id="text3427"
       style="fill:#000000"
       d="m 607.84508,35.563841 0,84.502619 c 10.39834,-10.79883 21.01123,-19.03741 31.82436,-24.715725 10.79883,-5.80705 24.17222,-8.710581 40.12015,-8.710581 18.37947,0 34.45613,4.391051 48.23,13.173141 13.9169,8.639055 24.65852,21.268685 32.22485,37.888865 7.70936,16.49146 11.55689,36.07238 11.55689,58.77137 0,16.74891 -2.15976,32.15333 -6.4936,46.21327 -4.1908,13.90259 -10.32682,26.003 -18.43667,36.27262 -8.10985,10.26961 -17.96468,18.23643 -29.59308,23.91475 -11.48538,5.5353 -24.18652,8.3101 -38.08912,8.3101 -8.52463,0 -16.56297,-1.01552 -24.1293,-3.04656 -7.4233,-2.03104 -13.77387,-4.66281 -19.0374,-7.90961 -5.27784,-3.37553 -9.79762,-6.82257 -13.58793,-10.32682 -3.64729,-3.51856 -8.51034,-8.7821 -14.58915,-15.80491 l 0,5.46378 c 0,10.41264 -2.50304,18.30794 -7.49481,23.71451 -5.00608,5.26353 -11.35665,7.90961 -19.05171,7.90961 -7.83809,0 -14.11715,-2.64608 -18.85147,-7.90961 -4.59129,-5.40657 -6.87978,-13.30187 -6.87978,-23.71451 l 0,-241.564784 c 0,-11.213618 2.21698,-19.652438 6.67954,-25.330762 4.59129,-5.8070524 10.94186,-8.7105784 19.05171,-8.7105784 8.51033,0 15.06115,2.760495 19.65244,8.3100924 4.60559,5.392262 6.89408,13.17314 6.89408,23.299723 m 2.63177,164.356729 c 0,22.02675 5.00608,38.97591 15.00393,50.86177 10.12659,11.75714 23.37124,17.6357 39.71967,17.6357 13.9169,0 25.87428,-6.00729 35.87213,-18.03618 10.12659,-12.15763 15.18988,-29.52157 15.18988,-52.07753 0,-14.60345 -2.08825,-27.16156 -6.27906,-37.70293 -4.1908,-10.54138 -10.12658,-18.63692 -17.83594,-24.31525 -7.69506,-5.80705 -16.6774,-8.71057 -26.94701,-8.71057 -10.54137,0 -19.9242,2.90352 -28.17708,8.71057 -8.23857,5.67833 -14.71787,13.98842 -19.45219,24.93028 -4.72002,10.79883 -7.09433,23.70021 -7.09433,38.70414" />
    <path
       inkscape:connector-curvature="0"
       id="text3431"
       style="fill:#000000"
       d="m 996.62632,68.149538 c 0,2.789101 -0.18594,6.879783 -0.55782,12.272046 -0.18594,5.220625 -0.28606,9.039549 -0.28606,11.45677 l -39.09033,0 0,-34.341705 c 0,-6.708146 -3.7188,-10.055064 -11.17071,-10.055064 -7.4376,0 -11.15641,3.346918 -11.15641,10.055064 l 0,110.291081 c 0,6.87978 3.71881,10.32683 11.15641,10.32683 7.45191,0 11.17071,-3.44705 11.17071,-10.32683 l 0,-36.58729 39.09033,0 0,35.74341 c 0,10.98477 -5.95009,19.36637 -17.86455,25.13052 -9.49725,4.6628 -20.29608,6.9799 -32.39649,6.9799 -12.28635,0 -23.07087,-2.3171 -32.38218,-6.9799 -11.91447,-5.76415 -17.87886,-14.14575 -17.87886,-25.13052 l 0,-107.501981 c 0,-20.653654 16.76322,-30.989064 50.26104,-30.989064 16.76321,0 29.04956,2.51162 36.85905,7.54631 9.49725,6.13602 14.24587,16.834729 14.24587,32.110423" />
  </g>
</svg>
