<?xml version="1.0" encoding="UTF-8" standalone="no"?>
<svg
   id="svg1"
   sodipodi:docname="paste.svg"
   viewBox="0 0 600.00001 600"
   sodipodi:version="0.32"
   _SVGFile__filename="oldscale/actions/paste.svg"
   version="1.0"
   y="0"
   x="0"
   inkscape:version="1.2.1 (9c6d41e4, 2022-07-14)"
   width="600"
   height="600"
   inkscape:export-filename="paste.png"
   inkscape:export-xdpi="96"
   inkscape:export-ydpi="96"
   xmlns:inkscape="http://www.inkscape.org/namespaces/inkscape"
   xmlns:sodipodi="http://sodipodi.sourceforge.net/DTD/sodipodi-0.dtd"
   xmlns="http://www.w3.org/2000/svg"
   xmlns:svg="http://www.w3.org/2000/svg"
   xmlns:rdf="http://www.w3.org/1999/02/22-rdf-syntax-ns#"
   xmlns:cc="http://creativecommons.org/ns#"
   xmlns:dc="http://purl.org/dc/elements/1.1/">
  <defs
     id="defs192" />
  <sodipodi:namedview
     id="base"
     bordercolor="#666666"
     inkscape:pageshadow="2"
     inkscape:window-y="25"
     pagecolor="#ffffff"
     inkscape:window-height="982"
     inkscape:zoom="1.27"
     inkscape:window-x="0"
     borderopacity="1.0"
     inkscape:current-layer="g519"
     inkscape:cx="300.3937"
     inkscape:cy="300"
     inkscape:window-width="1502"
     inkscape:pageopacity="0"
     inkscape:showpageshadow="2"
     inkscape:pagecheckerboard="true"
     inkscape:deskcolor="#d1d1d1"
     showgrid="false"
     inkscape:window-maximized="0" />
  <g
     id="g519"
     transform="matrix(11.168377,0,0,11.168377,54.582733,-0.18074255)">
    <path
       id="rect1101"
       style="fill:#333333;fill-rule:evenodd;stroke:#000000;stroke-width:3.0473;stroke-linejoin:round;fill-opacity:1"
       d="m 7.513,4.5767 c -1.3709,0 -2.4745,1.1036 -2.4745,2.4745 v 31.564 c 0,1.371 1.1036,2.474 2.4745,2.474 h 29.783 c 1.371,0 2.474,-1.103 2.474,-2.474 V 7.0512 c 0,-1.3707 -1.103,-2.4743 -2.474,-2.4743 H 7.513 Z"
       transform="matrix(0.99472,0,0,1.0572,-0.31183,5.6295)" />
    <path
       id="rect690"
       style="fill:#cccccc;fill-rule:evenodd;stroke:#000000;stroke-width:2.5;stroke-linejoin:round;fill-opacity:1"
       d="M 7.5894,19.448 15.237,46.142 36.359,40.091 28.712,13.397 7.589,19.448 Z" />
    <path
       id="rect689"
       style="fill:#cccccc;fill-rule:evenodd;stroke:#000000;stroke-width:3.6844;stroke-linecap:round;stroke-linejoin:round;fill-opacity:1"
       transform="matrix(0.84818,0,0,0.84818,-3.2366,1.5664)"
       d="m 19.986,3.6769 c -2.21,0 -3.989,1.7789 -3.989,3.9885 v 2.2504 c 0,2.2092 1.779,3.9882 3.989,3.9882 h 19.475 c 2.21,0 3.988,-1.779 3.988,-3.9882 V 7.6654 c 0,-2.2096 -1.778,-3.9885 -3.988,-3.9885 z" />
  </g>
  <metadata
     id="metadata189">
    <rdf:RDF>
      <cc:Work>
        <dc:format>image/svg+xml</dc:format>
        <dc:type
           rdf:resource="http://purl.org/dc/dcmitype/StillImage" />
        <cc:license
           rdf:resource="http://creativecommons.org/publicdomain/zero/1.0/" />
        <dc:publisher>
          <cc:Agent
             rdf:about="http://openclipart.org/">
            <dc:title>Openclipart</dc:title>
          </cc:Agent>
        </dc:publisher>
      </cc:Work>
      <cc:License
         rdf:about="http://creativecommons.org/publicdomain/zero/1.0/">
        <cc:permits
           rdf:resource="http://creativecommons.org/ns#Reproduction" />
        <cc:permits
           rdf:resource="http://creativecommons.org/ns#Distribution" />
        <cc:permits
           rdf:resource="http://creativecommons.org/ns#DerivativeWorks" />
      </cc:License>
    </rdf:RDF>
  </metadata>
</svg>
