<?xml version="1.0" encoding="UTF-8" standalone="no"?>
<svg
   xmlns:dc="http://purl.org/dc/elements/1.1/"
   xmlns:cc="http://creativecommons.org/ns#"
   xmlns:rdf="http://www.w3.org/1999/02/22-rdf-syntax-ns#"
   xmlns:svg="http://www.w3.org/2000/svg"
   xmlns="http://www.w3.org/2000/svg"
   xmlns:xlink="http://www.w3.org/1999/xlink"
   xmlns:sodipodi="http://sodipodi.sourceforge.net/DTD/sodipodi-0.dtd"
   xmlns:inkscape="http://www.inkscape.org/namespaces/inkscape"
   width="600"
   height="600"
   id="svg3493"
   version="1.1"
   inkscape:version="0.91 r13725"
   sodipodi:docname="python.svg"
   inkscape:export-filename="/Users/tommaso/neutrino/resources/icons/python.png"
   inkscape:export-xdpi="90"
   inkscape:export-ydpi="90">
  <metadata
     id="metadata3546">
    <rdf:RDF>
      <cc:Work
         rdf:about="">
        <dc:format>image/svg+xml</dc:format>
        <dc:type
           rdf:resource="http://purl.org/dc/dcmitype/StillImage" />
        <dc:title />
      </cc:Work>
    </rdf:RDF>
  </metadata>
  <sodipodi:namedview
     pagecolor="#ffffff"
     bordercolor="#666666"
     borderopacity="1"
     objecttolerance="10"
     gridtolerance="10"
     guidetolerance="10"
     inkscape:pageopacity="0"
     inkscape:pageshadow="2"
     inkscape:window-width="1125"
     inkscape:window-height="881"
     id="namedview3544"
     showgrid="false"
     inkscape:zoom="0.82833333"
     inkscape:cx="-60.965798"
     inkscape:cy="300"
     inkscape:window-x="1793"
     inkscape:window-y="250"
     inkscape:window-maximized="0"
     inkscape:current-layer="layer1" />
  <defs
     id="defs3495">
    <linearGradient
       id="lg1">
      <stop
         stop-color="#3778ae"
         offset="0"
         id="stop3498" />
      <stop
         stop-color="#366c99"
         offset="1"
         id="stop3500" />
    </linearGradient>
    <linearGradient
       id="lg2">
      <stop
         stop-color="#fff"
         offset="0"
         id="stop3503" />
      <stop
         stop-color="#fff"
         stop-opacity="0.165"
         offset="1"
         id="stop3505" />
    </linearGradient>
    <linearGradient
       id="lg3">
      <stop
         stop-color="#ffe253"
         offset="0"
         id="stop3508" />
      <stop
         stop-color="#ffca1c"
         offset="1"
         id="stop3510" />
    </linearGradient>
    <linearGradient
       id="lg4">
      <stop
         stop-color="#000"
         offset="0"
         id="stop3513" />
      <stop
         stop-color="#000"
         stop-opacity="0"
         offset="1"
         id="stop3515" />
    </linearGradient>
    <linearGradient
       x1="94.693001"
       y1="112.511"
       x2="94.693001"
       y2="64.053001"
       id="lg5"
       xlink:href="#lg2"
       gradientUnits="userSpaceOnUse"
       gradientTransform="matrix(0.353878,0,0,0.353878,-17.3795,532.588)" />
    <linearGradient
       x1="59.728001"
       y1="102"
       x2="142.62"
       y2="102"
       id="lg6"
       xlink:href="#lg1"
       gradientUnits="userSpaceOnUse"
       gradientTransform="matrix(0.353878,0,0,0.353878,-17.3795,532.588)" />
    <linearGradient
       x1="94.693001"
       y1="112.511"
       x2="94.693001"
       y2="64.053001"
       id="lg7"
       xlink:href="#lg2"
       gradientUnits="userSpaceOnUse"
       gradientTransform="matrix(0.353878,0,0,0.353878,-6.29697,544.05463)" />
    <linearGradient
       x1="119.191"
       y1="89.129997"
       x2="116.965"
       y2="169.27901"
       id="lg8"
       xlink:href="#lg3"
       gradientUnits="userSpaceOnUse"
       gradientTransform="matrix(0.353878,0,0,0.353878,-16.3897,534.003)" />
    <radialGradient
       cx="15.115"
       cy="63.965"
       r="12.289"
       fx="15.115"
       fy="63.965"
       id="rg1"
       xlink:href="#lg4"
       gradientUnits="userSpaceOnUse"
       gradientTransform="matrix(1.6,0,0,0.551754,-0.183975,556.83575)" />
  </defs>
  <g
     transform="matrix(1.8460643,0,0,1.8460643,-678.44739,-1006.8068)"
     id="layer1"
     inkscape:label="Layer 1">
    <g
       id="g3004"
       transform="matrix(0.93173385,0,0,0.93173385,36.182293,48.324774)"
       inkscape:export-xdpi="90"
       inkscape:export-ydpi="90">
      <path
         inkscape:connector-curvature="0"
         id="path2997"
         d="M 524.02119,846.66898 C 490.18171,845.43928 469.23673,835.4046 463.9078,817.8688 l -0.6194,-2.03822 -0.0869,-34.37807 c -0.0994,-39.34605 -0.0645,-40.14313 2.02994,-46.40832 3.8218,-11.4321 12.85946,-18.80326 26.99339,-22.01596 l 3.12528,-0.71039 38.86217,-0.17214 c 27.84331,-0.12334 39.38779,-0.26278 40.71599,-0.49179 7.78179,-1.34176 12.88656,-3.35079 17.67917,-6.95781 5.72529,-4.30898 10.45115,-11.68459 12.56305,-19.60706 1.58617,-5.95027 1.54362,-5.30024 1.71503,-26.20182 l 0.15935,-19.43108 13.99581,0 13.99581,0 2.71764,0.75892 c 14.56095,4.06625 25.13262,17.86207 29.63343,38.67107 1.73113,8.00371 1.74921,8.29985 1.75236,28.71761 0.003,19.87041 -0.006,20.04397 -1.39428,26.56194 -1.3645,6.40641 -3.15056,11.61922 -5.81963,16.98521 -5.3828,10.82172 -13.3199,18.14602 -23.35659,21.55326 -5.73349,1.9464 -0.93423,1.78362 -57.34208,1.94488 l -50.81975,0.14528 0,4.61997 0,4.61998 33.69866,0.13588 33.69866,0.13589 0.13588,16.57756 c 0.0747,9.11766 0.0421,17.36 -0.0725,18.3163 -0.27725,2.31306 -1.25851,5.05814 -2.66252,7.44846 -1.44585,2.46155 -5.8352,6.86423 -8.81489,8.84166 -9.05051,6.00626 -22.84938,9.66748 -41.03627,10.88811 -6.11918,0.41068 -14.78488,0.52882 -21.33343,0.29086 z m 46.7433,-21.48129 c 6.49545,-1.05304 11.14502,-7.40993 10.07408,-13.77327 -0.88336,-5.24878 -4.93568,-9.30861 -10.15459,-10.17341 -7.96717,-1.3202 -15.21263,5.99583 -13.79486,13.9292 1.03129,5.77076 5.65851,9.83364 11.70127,10.27415 0.2242,0.0163 1.20255,-0.0992 2.1741,-0.25667 z M 425.9631,776.15253 c -7.64387,-1.38985 -15.17136,-6.02266 -20.4906,-12.611 -10.07532,-12.47914 -15.16151,-33.28398 -14.52301,-59.4057 0.3979,-16.27805 2.83146,-28.3617 7.78205,-38.64118 6.38127,-13.25015 15.91577,-21.1079 28.78701,-23.7245 2.81928,-0.57313 2.9606,-0.57462 52.61546,-0.55479 27.38373,0.0109 49.98945,-0.0572 50.23493,-0.1514 0.38956,-0.14949 0.44634,-0.75521 0.44634,-4.76218 0,-2.52499 -0.0306,-4.62027 -0.0679,-4.65617 -0.0374,-0.0359 -15.23233,-0.12763 -33.7666,-0.20383 l -33.69866,-0.13854 -0.07,-17.51427 c -0.0766,-19.18274 -0.092,-18.9603 1.55034,-22.48323 5.69332,-12.21284 22.46461,-19.63305 49.33937,-21.82947 1.9431,-0.1588 7.20173,-0.36064 11.68582,-0.44852 29.75347,-0.58311 51.57919,4.85751 63.05178,15.71727 1.27096,1.20307 2.92729,2.99882 3.68074,3.99055 1.71323,2.25504 3.84579,6.56034 4.66235,9.41253 l 0.62243,2.17411 0,36.14453 c 0,33.73877 -0.0327,36.31637 -0.49158,38.72628 -0.59212,3.10977 -2.01438,7.47916 -3.19974,9.83009 -4.1039,8.1393 -11.66531,14.00315 -21.68879,16.81957 -6.50861,1.8288 -3.55253,1.70865 -46.63719,1.89559 -42.78673,0.18564 -40.20144,0.086 -46.19977,1.78121 -11.65075,3.29273 -20.20984,12.36722 -23.68693,25.11328 -1.5631,5.72991 -1.52841,5.19458 -1.69958,26.22516 l -0.15925,19.56697 -13.04464,0.0447 c -9.84739,0.0338 -13.53234,-0.0439 -15.03438,-0.31707 z m 71.23167,-162.57949 c 4.94565,-2.32345 7.92398,-7.76975 7.02862,-12.85281 -0.82592,-4.68879 -4.04546,-8.43082 -8.41475,-9.78036 -6.98298,-2.15682 -14.26913,2.29386 -15.55751,9.50318 -1.04783,5.86328 2.34322,11.57131 8.07841,13.59808 1.28169,0.45295 2.10588,0.54476 4.30298,0.47938 2.39371,-0.0712 2.9375,-0.18417 4.56225,-0.94747 z"
         style="fill:#fed142" />
      <path
         inkscape:connector-curvature="0"
         id="path2995"
         d="m 425.9631,776.15253 c -7.64387,-1.38985 -15.17136,-6.02266 -20.4906,-12.611 -10.07532,-12.47914 -15.16151,-33.28398 -14.52301,-59.4057 0.3979,-16.27805 2.83146,-28.3617 7.78205,-38.64118 6.38127,-13.25015 15.91577,-21.1079 28.78701,-23.7245 2.81928,-0.57313 2.9606,-0.57462 52.61546,-0.55479 27.38373,0.0109 49.98945,-0.0572 50.23493,-0.1514 0.38956,-0.14949 0.44634,-0.75521 0.44634,-4.76218 0,-2.52499 -0.0306,-4.62027 -0.0679,-4.65617 -0.0374,-0.0359 -15.23233,-0.12763 -33.7666,-0.20383 l -33.69866,-0.13854 -0.07,-17.51427 c -0.0766,-19.18274 -0.092,-18.9603 1.55034,-22.48323 5.69332,-12.21284 22.46461,-19.63305 49.33937,-21.82947 1.9431,-0.1588 7.20173,-0.36064 11.68582,-0.44852 29.75347,-0.58311 51.57919,4.85751 63.05178,15.71727 1.27096,1.20307 2.92729,2.99882 3.68074,3.99055 1.71323,2.25504 3.84579,6.56034 4.66235,9.41253 l 0.62243,2.17411 0,36.14453 c 0,33.73877 -0.0327,36.31637 -0.49158,38.72628 -0.59212,3.10977 -2.01438,7.47916 -3.19974,9.83009 -4.1039,8.1393 -11.66531,14.00315 -21.68879,16.81957 -6.50861,1.8288 -3.55253,1.70865 -46.63719,1.89559 -42.78673,0.18564 -40.20144,0.086 -46.19977,1.78121 -11.65075,3.29273 -20.20984,12.36722 -23.68693,25.11328 -1.5631,5.72991 -1.52841,5.19458 -1.69958,26.22516 l -0.15925,19.56697 -13.04464,0.0447 c -9.84739,0.0338 -13.53234,-0.0439 -15.03438,-0.31707 z m 71.23167,-162.57949 c 4.94565,-2.32345 7.92398,-7.76975 7.02862,-12.85281 -0.82592,-4.68879 -4.04546,-8.43082 -8.41475,-9.78036 -6.98298,-2.15682 -14.26913,2.29386 -15.55751,9.50318 -1.04783,5.86328 2.34322,11.57131 8.07841,13.59808 1.28169,0.45295 2.10588,0.54476 4.30298,0.47938 2.39371,-0.0712 2.9375,-0.18417 4.56225,-0.94747 z"
         style="fill:#3571a3" />
    </g>
  </g>
</svg>
