<?xml version="1.0" encoding="UTF-8" standalone="no"?>
<svg
   xmlns:dc="http://purl.org/dc/elements/1.1/"
   xmlns:cc="http://creativecommons.org/ns#"
   xmlns:rdf="http://www.w3.org/1999/02/22-rdf-syntax-ns#"
   xmlns:svg="http://www.w3.org/2000/svg"
   xmlns="http://www.w3.org/2000/svg"
   xmlns:xlink="http://www.w3.org/1999/xlink"
   xmlns:sodipodi="http://sodipodi.sourceforge.net/DTD/sodipodi-0.dtd"
   xmlns:inkscape="http://www.inkscape.org/namespaces/inkscape"
   width="600"
   height="600"
   id="svg3493"
   version="1.1"
   inkscape:version="0.91 r13725"
   sodipodi:docname="python.svg"
   inkscape:export-filename="/Users/tommaso/neutrino/resources/icons/python.png"
   inkscape:export-xdpi="90"
   inkscape:export-ydpi="90">
  <metadata
     id="metadata3546">
    <rdf:RDF>
      <cc:Work
         rdf:about="">
        <dc:format>image/svg+xml</dc:format>
        <dc:type
           rdf:resource="http://purl.org/dc/dcmitype/StillImage" />
        <dc:title />
      </cc:Work>
    </rdf:RDF>
  </metadata>
  <sodipodi:namedview
     pagecolor="#ffffff"
     bordercolor="#666666"
     borderopacity="1"
     objecttolerance="10"
     gridtolerance="10"
     guidetolerance="10"
     inkscape:pageopacity="0"
     inkscape:pageshadow="2"
     inkscape:window-width="1125"
     inkscape:window-height="756"
     id="namedview3544"
     showgrid="false"
     inkscape:zoom="0.98333333"
     inkscape:cx="300"
     inkscape:cy="300"
     inkscape:window-x="16"
     inkscape:window-y="29"
     inkscape:window-maximized="0"
     inkscape:current-layer="layer1" />
  <defs
     id="defs3495">
    <linearGradient
       id="lg1">
      <stop
         stop-color="#3778ae"
         offset="0"
         id="stop3498" />
      <stop
         stop-color="#366c99"
         offset="1"
         id="stop3500" />
    </linearGradient>
    <linearGradient
       id="lg2">
      <stop
         stop-color="#fff"
         offset="0"
         id="stop3503" />
      <stop
         stop-color="#fff"
         stop-opacity="0.165"
         offset="1"
         id="stop3505" />
    </linearGradient>
    <linearGradient
       id="lg3">
      <stop
         stop-color="#ffe253"
         offset="0"
         id="stop3508" />
      <stop
         stop-color="#ffca1c"
         offset="1"
         id="stop3510" />
    </linearGradient>
    <linearGradient
       id="lg4">
      <stop
         stop-color="#000"
         offset="0"
         id="stop3513" />
      <stop
         stop-color="#000"
         stop-opacity="0"
         offset="1"
         id="stop3515" />
    </linearGradient>
    <linearGradient
       x1="94.693001"
       y1="112.511"
       x2="94.693001"
       y2="64.053001"
       id="lg5"
       xlink:href="#lg2"
       gradientUnits="userSpaceOnUse"
       gradientTransform="matrix(0.353878,0,0,0.353878,-17.3795,532.588)" />
    <linearGradient
       x1="59.728001"
       y1="102"
       x2="142.62"
       y2="102"
       id="lg6"
       xlink:href="#lg1"
       gradientUnits="userSpaceOnUse"
       gradientTransform="matrix(0.353878,0,0,0.353878,-17.3795,532.588)" />
    <linearGradient
       x1="94.693001"
       y1="112.511"
       x2="94.693001"
       y2="64.053001"
       id="lg7"
       xlink:href="#lg2"
       gradientUnits="userSpaceOnUse"
       gradientTransform="matrix(0.353878,0,0,0.353878,-6.29697,544.05463)" />
    <linearGradient
       x1="119.191"
       y1="89.129997"
       x2="116.965"
       y2="169.27901"
       id="lg8"
       xlink:href="#lg3"
       gradientUnits="userSpaceOnUse"
       gradientTransform="matrix(0.353878,0,0,0.353878,-16.3897,534.003)" />
    <radialGradient
       cx="15.115"
       cy="63.965"
       r="12.289"
       fx="15.115"
       fy="63.965"
       id="rg1"
       xlink:href="#lg4"
       gradientUnits="userSpaceOnUse"
       gradientTransform="matrix(1.6,0,0,0.551754,-0.183975,556.83575)" />
  </defs>
  <g
     transform="matrix(1.8460643,0,0,1.8460643,-678.44739,-1006.8068)"
     id="layer1"
     inkscape:label="Layer 1">
    <path
       style="fill:#fed142;stroke:#000000;stroke-opacity:1;stroke-linejoin:round;stroke-linecap:round;stroke-width:2;stroke-miterlimit:4;stroke-dasharray:none"
       d="M 432.48828 182.29492 L 432.21484 215.7168 C 431.92001 251.66836 431.9939 250.55045 429.26562 260.78516 C 425.63307 274.41214 417.50399 287.09815 407.65625 294.50977 C 399.41278 300.714 390.63305 304.16869 377.24805 306.47656 C 374.96349 306.87048 355.10646 307.11207 307.21484 307.32422 L 240.36914 307.61914 L 234.99414 308.8418 C 210.68321 314.36777 195.1381 327.0453 188.56445 346.70898 C 184.96193 357.48537 184.90132 358.85639 185.07227 426.5332 L 185.22266 485.66602 L 186.28711 489.17188 C 195.4531 519.33417 231.48027 536.59386 289.68555 538.70898 C 300.94933 539.11829 315.85368 538.91536 326.37891 538.20898 C 357.66109 536.10946 381.39564 529.81147 396.96289 519.48047 C 402.08806 516.07921 409.63807 508.5074 412.125 504.27344 C 414.53995 500.16199 416.22818 495.4395 416.70508 491.46094 C 416.90224 489.81606 416.95856 475.63979 416.83008 459.95703 L 416.5957 431.44141 L 358.63281 431.20898 L 300.66992 430.97461 L 300.66992 423.02734 L 300.66992 415.08203 L 388.08203 414.83203 C 485.10582 414.55466 476.85105 414.8342 486.71289 411.48633 C 503.9764 405.62574 517.6281 393.02787 526.88672 374.41406 C 531.47764 365.18435 534.54949 356.21851 536.89648 345.19922 C 539.28363 333.98805 539.30046 333.68962 539.29492 299.51172 C 539.28949 264.39234 539.25888 263.88195 536.28125 250.11523 C 528.53969 214.32291 510.35597 190.59372 485.31055 183.59961 L 480.63672 182.29492 L 456.5625 182.29492 L 432.48828 182.29492 z M 366.13672 460.3125 C 367.38838 460.27564 368.66253 460.35742 369.94727 460.57031 C 378.92401 462.0578 385.89464 469.04219 387.41406 478.07031 C 389.25612 489.0155 381.25837 499.94848 370.08594 501.75977 C 368.41482 502.03068 366.73133 502.22923 366.3457 502.20117 C 355.9519 501.44347 347.9926 494.45523 346.21875 484.5293 C 344.00874 472.16286 354.03734 460.66885 366.13672 460.3125 z "
       transform="matrix(0.54169294,0,0,0.54169294,367.51016,545.38014)"
       id="path4169" />
    <path
       style="fill:#3571a3;fill-opacity:1;stroke:#000000;stroke-opacity:1;stroke-linejoin:round;stroke-linecap:round;stroke-width:2;stroke-miterlimit:4;stroke-dasharray:none"
       d="M 302.1582 61.087891 C 299.06718 61.069884 295.92123 61.091611 292.72266 61.154297 C 285.00985 61.305453 275.96525 61.652638 272.62305 61.925781 C 226.39738 65.703715 197.55056 78.468022 187.75781 99.474609 C 184.93295 105.53419 184.95999 105.15141 185.0918 138.14648 L 185.21094 168.27148 L 243.17383 168.50977 C 275.05353 168.64084 301.18966 168.79753 301.25391 168.85938 C 301.31815 168.92113 301.37109 172.52605 301.37109 176.86914 C 301.37109 183.76129 301.27356 184.80341 300.60352 185.06055 C 300.18128 185.22256 261.2984 185.33914 214.19727 185.32031 C 128.7889 185.2862 128.54654 185.28957 123.69727 186.27539 C 101.55821 190.77604 85.157674 204.29122 74.181641 227.08203 C 65.666411 244.76316 61.481266 265.54797 60.796875 293.54688 C 59.698614 338.47729 68.447378 374.26195 85.777344 395.72656 C 94.926641 407.05878 107.87372 415.02737 121.02148 417.41797 C 123.60505 417.88783 129.94296 418.02104 146.88086 417.96289 L 169.31836 417.88672 L 169.5918 384.23047 C 169.88623 348.057 169.82704 348.97677 172.51562 339.12109 C 178.49636 317.19734 193.21806 301.5894 213.25781 295.92578 C 223.57519 293.00989 219.12775 293.18064 292.72266 292.86133 C 366.83003 292.53978 361.74634 292.74716 372.94141 289.60156 C 390.18221 284.75719 403.18722 274.6718 410.24609 260.67188 C 412.28496 256.62818 414.73153 249.11259 415.75 243.76367 C 416.53923 239.61852 416.5957 235.18439 416.5957 177.15234 L 416.5957 114.98242 L 415.52539 111.24219 C 414.12087 106.33629 410.45269 98.9315 407.50586 95.052734 C 406.2099 93.346916 403.36189 90.25878 401.17578 88.189453 C 382.67579 70.677687 348.52356 61.357987 302.1582 61.087891 z M 234.41797 97.912109 C 236.63526 97.852225 238.90614 98.14816 241.1582 98.84375 C 248.67355 101.16503 254.21221 107.60305 255.63281 115.66797 C 257.17287 124.41104 252.04969 133.77702 243.54297 137.77344 C 240.74834 139.08636 239.81259 139.2819 235.69531 139.4043 C 231.91622 139.51676 230.49947 139.35917 228.29492 138.58008 C 218.43014 135.09395 212.59612 125.27454 214.39844 115.18945 C 216.19898 105.11419 224.80971 98.171607 234.41797 97.912109 z "
       transform="matrix(0.54169294,0,0,0.54169294,367.51016,545.38014)"
       id="path4165" />
  </g>
</svg>
