<?xml version="1.0" encoding="UTF-8" standalone="no"?>
<!-- Created with Inkscape (http://www.inkscape.org/) -->

<svg
   xmlns:dc="http://purl.org/dc/elements/1.1/"
   xmlns:cc="http://creativecommons.org/ns#"
   xmlns:rdf="http://www.w3.org/1999/02/22-rdf-syntax-ns#"
   xmlns:svg="http://www.w3.org/2000/svg"
   xmlns="http://www.w3.org/2000/svg"
   xmlns:sodipodi="http://sodipodi.sourceforge.net/DTD/sodipodi-0.dtd"
   xmlns:inkscape="http://www.inkscape.org/namespaces/inkscape"
   width="600"
   height="600"
   id="svg3973"
   sodipodi:version="0.32"
   inkscape:version="0.48.2 r9819"
   sodipodi:docname="short.svg"
   inkscape:output_extension="org.inkscape.output.svg.inkscape"
   version="1.0">
  <defs
     id="defs3975">
    <inkscape:perspective
       sodipodi:type="inkscape:persp3d"
       inkscape:vp_x="0 : 526.18109 : 1"
       inkscape:vp_y="0 : 1000 : 0"
       inkscape:vp_z="744.09448 : 526.18109 : 1"
       inkscape:persp3d-origin="372.04724 : 350.78739 : 1"
       id="perspective3981" />
    <inkscape:perspective
       id="perspective3981-9"
       inkscape:persp3d-origin="372.04724 : 350.78739 : 1"
       inkscape:vp_z="744.09448 : 526.18109 : 1"
       inkscape:vp_y="0 : 1000 : 0"
       inkscape:vp_x="0 : 526.18109 : 1"
       sodipodi:type="inkscape:persp3d" />
  </defs>
  <sodipodi:namedview
     id="base"
     pagecolor="#ffffff"
     bordercolor="#666666"
     borderopacity="1.0"
     gridtolerance="10000"
     guidetolerance="10"
     objecttolerance="10"
     inkscape:pageopacity="0.0"
     inkscape:pageshadow="2"
     inkscape:zoom="0.89666667"
     inkscape:cx="160.03718"
     inkscape:cy="284.95246"
     inkscape:document-units="px"
     inkscape:current-layer="layer1-3"
     showgrid="true"
     inkscape:window-width="1276"
     inkscape:window-height="756"
     inkscape:window-x="4"
     inkscape:window-y="0"
     inkscape:window-maximized="1"
     fit-margin-top="0"
     fit-margin-left="0"
     fit-margin-right="0"
     fit-margin-bottom="0"
     showguides="true"
     inkscape:guide-bbox="true">
    <inkscape:grid
       type="xygrid"
       id="grid3144"
       empspacing="5"
       visible="true"
       enabled="true"
       snapvisiblegridlinesonly="true" />
    <sodipodi:guide
       orientation="1,0"
       position="-4.03692,-3.15274"
       id="guide3201" />
    <sodipodi:guide
       orientation="0,1"
       position="-4.03692,-3.15274"
       id="guide3203" />
  </sodipodi:namedview>
  <metadata
     id="metadata3978">
    <rdf:RDF>
      <cc:Work
         rdf:about="">
        <dc:format>image/svg+xml</dc:format>
        <dc:type
           rdf:resource="http://purl.org/dc/dcmitype/StillImage" />
        <dc:title />
      </cc:Work>
    </rdf:RDF>
  </metadata>
  <g
     inkscape:label="Layer 1"
     inkscape:groupmode="layer"
     id="layer1"
     transform="translate(-461.34375,212.875)">
    <g
       transform="translate(461.34375,-212.875)"
       style="font-size:28px;font-style:normal;font-variant:normal;font-weight:normal;font-stretch:normal;text-align:start;line-height:125%;letter-spacing:0px;word-spacing:0px;writing-mode:lr-tb;text-anchor:start;fill:#000000;fill-opacity:1;stroke:none;font-family:Times New Roman;-inkscape-font-specification:'Times New Roman,'"
       id="text3003">
      <g
         style="font-size:144px;line-height:100%;letter-spacing:-2px;fill:#000000;font-family:Arial Black;-inkscape-font-specification:'Arial Black,'"
         id="text3011">
        <g
           transform="translate(-461.91211,186.48584)"
           id="layer1-3"
           inkscape:label="Layer 1">
          <g
             style="font-size:303.34692383px;font-style:normal;font-variant:normal;font-weight:bold;font-stretch:normal;text-align:start;line-height:89.99999762%;letter-spacing:0.41433597px;word-spacing:0px;writing-mode:lr-tb;text-anchor:start;fill:#000000;fill-opacity:1;stroke:none;font-family:Arial;-inkscape-font-specification:Arial Bold"
             id="text3084">
            <path
               d="m 470.46399,16.777894 42.65816,-4.147321 c 2.56734,14.318193 7.75148,24.834604 15.55246,31.549265 7.89958,6.714747 18.51474,10.072099 31.8455,10.072066 14.12053,3.3e-5 24.73568,-2.962337 31.8455,-8.887117 7.2083,-6.023443 10.81252,-13.034383 10.81266,-21.032844 -1.4e-4,-5.13471 -1.5307,-9.479519 -4.59168,-13.034438 -2.9625,-3.6535126 -8.19602,-6.8133732 -15.70057,-9.4795912 -5.1349,-1.77733602 -16.83626,-4.9371967 -35.10411,-9.4795914 -23.50155,-5.8258984 -39.99208,-12.9849574 -49.47162,-21.4771994 -13.3307,-11.948106 -19.99603,-26.513089 -19.99601,-43.694991 -2e-5,-11.059352 3.11047,-21.378272 9.33147,-30.956792 6.31969,-9.67688 15.35492,-17.03343 27.10571,-22.06967 11.84942,-5.03582 26.11817,-7.55383 42.80628,-7.55405 27.2537,2.2e-4 47.74342,5.97433 61.46922,17.92235 13.82423,11.94843 21.08204,27.895848 21.77344,47.842313 l -43.84311,1.925542 c -1.87631,-11.158104 -5.92488,-19.156502 -12.14573,-23.995215 -6.12235,-4.937105 -15.35507,-7.405747 -27.69818,-7.405931 -12.73828,1.84e-4 -22.71159,2.616944 -29.91996,7.850286 -4.64111,3.357529 -6.96163,7.850456 -6.96157,13.478794 -6e-5,5.134937 2.17234,9.529118 6.51722,13.182557 5.52968,4.641196 18.95909,9.479732 40.28826,14.515624 21.32895,5.036164 37.07888,10.269683 47.24984,15.700574 10.26939,5.332384 18.26779,12.688935 23.99521,22.069673 5.82582,9.2821887 8.73881,20.786056 8.739,34.511638 -1.9e-4,12.442014 -3.45628,24.094 -10.3683,34.955993 -6.91237,10.862049 -16.68819,18.959192 -29.32749,24.291453 -12.63959,5.233523 -28.38952,7.850282 -47.24984,7.850286 -27.45139,-4e-6 -48.53358,-6.319725 -63.24664,-18.959182 C 482.11597,59.584202 473.3276,41.069393 470.46399,16.777894"
               style="text-align:center;letter-spacing:-25.895998px;word-spacing:0.40138796px;text-anchor:middle"
               id="path3115" />
            <path
               d="m 658.45128,87.430473 0,-217.141893 43.84311,0 0,85.464444 85.90879,0 0,-85.464444 43.84311,0 0,217.141893 -43.84311,0 0,-94.944032 -85.90879,0 0,94.944032 -43.84311,0"
               style="text-align:center;letter-spacing:-25.895998px;word-spacing:0.40138796px;text-anchor:middle"
               id="path3117" />
            <path
               d="m 842.73558,-19.807404 c -2e-5,-22.118917 3.30796,-40.683098 9.92394,-55.692599 4.93726,-11.05935 11.65197,-20.983287 20.14413,-29.771837 8.59083,-8.78817 17.97167,-15.30539 28.14254,-19.55166 13.52808,-5.72704 29.1299,-8.59066 46.80548,-8.59088 31.99347,2.2e-4 57.56863,9.92416 76.72543,29.77184 19.2552,19.848065 28.8829,47.447473 28.8831,82.798306 -2e-4,35.054812 -9.5291,62.506101 -28.5868,82.35395 -19.0582,19.749155 -44.53453,29.623719 -76.42925,29.623723 -32.28995,-4e-6 -57.96381,-9.825196 -77.02168,-29.475605 -19.05795,-19.749103 -28.58691,-46.904155 -28.58689,-81.465238 m 45.17617,-1.481186 c -5e-5,24.5877741 5.67782,43.250701 17.03364,55.988836 11.35568,12.639496 25.77254,18.959217 43.25064,18.959183 17.47786,3.4e-5 31.79598,-6.270315 42.9544,-18.811064 11.25687,-12.63939 16.88537,-31.5491809 16.88557,-56.72943 -2e-4,-24.883793 -5.4806,-43.447974 -16.44122,-55.692599 -10.86218,-12.244295 -25.32842,-18.366525 -43.39875,-18.366708 -18.07057,1.83e-4 -32.63555,6.221159 -43.69499,18.662945 -11.05959,12.343371 -16.58934,31.006297 -16.58929,55.988837"
               style="text-align:center;letter-spacing:-25.895998px;word-spacing:0.40138796px;text-anchor:middle"
               id="path3119" />
            <path
               d="m 595.56254,360.4427 0,-217.14189 92.2779,0 c 23.20511,2.1e-4 40.04124,1.97513 50.50845,5.92474 10.56562,3.85129 19.00837,10.76349 25.32828,20.73661 6.31953,9.9735 9.47939,21.37862 9.47959,34.2154 -2e-4,16.29319 -4.78936,29.77197 -14.3675,40.43638 -9.57852,10.5659 -23.89664,17.23123 -42.9544,19.99601 9.47944,5.52986 17.28034,11.60271 23.40274,18.21859 6.22081,6.61604 14.56482,18.36677 25.03204,35.25223 l 26.51324,42.36193 -52.43399,0 -31.69739,-47.24984 c -11.25713,-16.88546 -18.95929,-27.50062 -23.1065,-31.8455 -4.14743,-4.44348 -8.54161,-7.45522 -13.18256,-9.03524 -4.64114,-1.67859 -11.99769,-2.51792 -22.06967,-2.51801 l -8.88712,0 0,90.64859 -43.84311,0 m 43.84311,-125.30835 32.43798,0 c 21.03272,1.2e-4 34.16589,-0.88859 39.39955,-2.66614 5.23338,-1.77729 9.33133,-4.8384 12.29385,-9.18335 2.96221,-4.34467 4.4434,-9.77568 4.44355,-16.29305 -1.5e-4,-7.30702 -1.97506,-13.18239 -5.92474,-17.62611 -3.85123,-4.54213 -9.33161,-7.40576 -16.44117,-8.59088 -3.55497,-0.49355 -14.2195,-0.74042 -31.99362,-0.7406 l -34.2154,0 0,55.10013"
               style="text-align:center;letter-spacing:-25.895998px;word-spacing:0.40138796px;text-anchor:middle"
               id="path3121" />
            <path
               d="m 837.61312,360.4427 0,-180.40848 -64.4316,0 0,-36.73341 172.55819,0 0,36.73341 -64.28348,0 0,180.40848 -43.84311,0"
               style="text-align:center;letter-spacing:-25.895998px;word-spacing:0.40138796px;text-anchor:middle"
               id="path3123" />
          </g>
        </g>
      </g>
    </g>
  </g>
</svg>
