<?xml version="1.0" encoding="UTF-8" standalone="no"?>
<!-- Created with Inkscape (http://www.inkscape.org/) -->

<svg
   xmlns:dc="http://purl.org/dc/elements/1.1/"
   xmlns:cc="http://creativecommons.org/ns#"
   xmlns:rdf="http://www.w3.org/1999/02/22-rdf-syntax-ns#"
   xmlns:svg="http://www.w3.org/2000/svg"
   xmlns="http://www.w3.org/2000/svg"
   xmlns:xlink="http://www.w3.org/1999/xlink"
   xmlns:sodipodi="http://sodipodi.sourceforge.net/DTD/sodipodi-0.dtd"
   xmlns:inkscape="http://www.inkscape.org/namespaces/inkscape"
   width="600"
   height="600"
   id="svg3973"
   sodipodi:version="0.32"
   inkscape:version="0.48.2 r9819"
   sodipodi:docname="trash.svg"
   inkscape:output_extension="org.inkscape.output.svg.inkscape"
   version="1.0"
   inkscape:export-filename="/Users/tommaso/local/src/neutrino/resources/icons/trash.png"
   inkscape:export-xdpi="118.01"
   inkscape:export-ydpi="118.01">
  <defs
     id="defs3975">
    <inkscape:perspective
       sodipodi:type="inkscape:persp3d"
       inkscape:vp_x="0 : 526.18109 : 1"
       inkscape:vp_y="0 : 1000 : 0"
       inkscape:vp_z="744.09448 : 526.18109 : 1"
       inkscape:persp3d-origin="372.04724 : 350.78739 : 1"
       id="perspective3981" />
    <filter
       filterUnits="userSpaceOnUse"
       x="0"
       y="0"
       id="ShadowBlur">
      <feGaussianBlur
         in="SourceAlpha"
         result="blur"
         stdDeviation="3"
         id="feGaussianBlur31" />
    </filter>
    <clipPath
       clipPathUnits="userSpaceOnUse"
       id="clipoutline2">
      <path
         d="m59.6 18c-23.3 0-42 9.8-42.6 21.7v9.8c0 12.5 19.5 22.5 43.7 22.5 24.3 0 43.7-10 43.7-22.5v-9.7c0-12.2-19.8-21.8-43.7-21.8h-1.1z"
         id="outline2" />
    </clipPath>
    <clipPath
       clipPathUnits="userSpaceOnUse"
       id="clipoutline1">
      <path
         d="m60.3 27.4c-19.9 0-35.9 7.6-35.9 16.6v56.8c0 9.2 16 16.5 35.9 16.5 19.7 0 35.7-7.3 35.7-16.5v-56.8c0-9-16-16.6-35.7-16.6z"
         id="outline1" />
    </clipPath>
    <linearGradient
       x1="96"
       x2="60"
       gradientUnits="userSpaceOnUse"
       xlink:href="#WhiteTransparent"
       id="linearGradient6216" />
    <linearGradient
       x1="22"
       x2="46"
       gradientUnits="userSpaceOnUse"
       xlink:href="#WhiteTransparent"
       id="linearGradient6213" />
    <linearGradient
       x1="13"
       y1="56"
       x2="13"
       gradientUnits="userSpaceOnUse"
       xlink:href="#BlackTransparent"
       y2="102"
       id="linearGradient6197" />
    <linearGradient
       y1="35"
       x2="0"
       gradientUnits="userSpaceOnUse"
       xlink:href="#BlackTransparent"
       y2="48"
       id="linearGradient6192" />
    <linearGradient
       y1="52"
       x2="0"
       gradientUnits="userSpaceOnUse"
       xlink:href="#WhiteTransparent"
       y2="16"
       id="linearGradient6188" />
    <linearGradient
       y1="71"
       x2="0"
       gradientUnits="userSpaceOnUse"
       xlink:href="#WhiteTransparent"
       y2="59"
       id="linearGradient6185" />
    <linearGradient
       y1="21"
       x2="0"
       gradientUnits="userSpaceOnUse"
       xlink:href="#WhiteTransparent"
       y2="30"
       id="linearGradient6182" />
    <linearGradient
       id="WhiteTransparent">
      <stop
         offset="0"
         style="stop-color:white"
         id="stop13" />
      <stop
         offset="1"
         style="stop-color:white;stop-opacity:0"
         id="stop15" />
    </linearGradient>
    <linearGradient
       id="BlackTransparent">
      <stop
         offset="0"
         style="stop-color:black"
         id="stop8" />
      <stop
         offset="1"
         style="stop-color:black;stop-opacity:0"
         id="stop10" />
    </linearGradient>
    <linearGradient
       x1="76"
       y1="105.3"
       gradientTransform="matrix(0.9,0,0,0.9,3.5,9)"
       x2="76"
       gradientUnits="userSpaceOnUse"
       xlink:href="#BlackTransparent"
       y2="86"
       id="linearGradient2299" />
    <linearGradient
       inkscape:collect="always"
       xlink:href="#WhiteTransparent"
       id="linearGradient3253"
       gradientUnits="userSpaceOnUse"
       x1="96"
       x2="60" />
    <linearGradient
       inkscape:collect="always"
       xlink:href="#WhiteTransparent"
       id="linearGradient3255"
       gradientUnits="userSpaceOnUse"
       x1="22"
       x2="46" />
    <linearGradient
       inkscape:collect="always"
       xlink:href="#BlackTransparent"
       id="linearGradient3257"
       gradientUnits="userSpaceOnUse"
       x1="13"
       y1="56"
       x2="13"
       y2="102" />
    <linearGradient
       inkscape:collect="always"
       xlink:href="#BlackTransparent"
       id="linearGradient3261"
       gradientUnits="userSpaceOnUse"
       x1="13"
       y1="56"
       x2="13"
       y2="102"
       gradientTransform="matrix(4.5628671,0,0,4.9602836,482.1921,-272.61257)" />
    <linearGradient
       inkscape:collect="always"
       xlink:href="#WhiteTransparent"
       id="linearGradient3264"
       gradientUnits="userSpaceOnUse"
       x1="22"
       x2="46"
       gradientTransform="matrix(4.5628671,0,0,4.9602836,482.1921,-272.61257)" />
    <linearGradient
       inkscape:collect="always"
       xlink:href="#WhiteTransparent"
       id="linearGradient3267"
       gradientUnits="userSpaceOnUse"
       x1="96"
       x2="60"
       gradientTransform="matrix(4.5628671,0,0,4.9602836,482.1921,-272.61257)" />
    <linearGradient
       inkscape:collect="always"
       xlink:href="#WhiteTransparent"
       id="linearGradient3300"
       gradientUnits="userSpaceOnUse"
       gradientTransform="matrix(4.5628671,0,0,4.9602836,482.1921,-272.61257)"
       x1="96"
       x2="60" />
    <linearGradient
       inkscape:collect="always"
       xlink:href="#WhiteTransparent"
       id="linearGradient3302"
       gradientUnits="userSpaceOnUse"
       gradientTransform="matrix(4.5628671,0,0,4.9602836,482.1921,-272.61257)"
       x1="22"
       x2="46" />
    <linearGradient
       inkscape:collect="always"
       xlink:href="#BlackTransparent"
       id="linearGradient3304"
       gradientUnits="userSpaceOnUse"
       gradientTransform="matrix(4.5628671,0,0,4.9602836,482.1921,-272.61257)"
       x1="13"
       y1="56"
       x2="13"
       y2="102" />
    <linearGradient
       inkscape:collect="always"
       xlink:href="#WhiteTransparent"
       id="linearGradient3306"
       gradientUnits="userSpaceOnUse"
       y1="52"
       x2="0"
       y2="16" />
    <linearGradient
       inkscape:collect="always"
       xlink:href="#WhiteTransparent"
       id="linearGradient3308"
       gradientUnits="userSpaceOnUse"
       y1="71"
       x2="0"
       y2="59" />
    <linearGradient
       inkscape:collect="always"
       xlink:href="#BlackTransparent"
       id="linearGradient3310"
       gradientUnits="userSpaceOnUse"
       y1="35"
       x2="0"
       y2="48" />
    <linearGradient
       inkscape:collect="always"
       xlink:href="#WhiteTransparent"
       id="linearGradient3312"
       gradientUnits="userSpaceOnUse"
       y1="21"
       x2="0"
       y2="30" />
    <linearGradient
       inkscape:collect="always"
       xlink:href="#BlackTransparent"
       id="linearGradient3314"
       gradientUnits="userSpaceOnUse"
       gradientTransform="matrix(0.9,0,0,0.9,3.5,9)"
       x1="76"
       y1="105.3"
       x2="76"
       y2="86" />
  </defs>
  <sodipodi:namedview
     id="base"
     pagecolor="#ffffff"
     bordercolor="#666666"
     borderopacity="1.0"
     gridtolerance="10000"
     guidetolerance="10"
     objecttolerance="10"
     inkscape:pageopacity="0.0"
     inkscape:pageshadow="2"
     inkscape:zoom="0.89666667"
     inkscape:cx="-39.591075"
     inkscape:cy="300"
     inkscape:document-units="px"
     inkscape:current-layer="layer1"
     showgrid="true"
     inkscape:window-width="1245"
     inkscape:window-height="756"
     inkscape:window-x="4"
     inkscape:window-y="0"
     inkscape:window-maximized="1"
     fit-margin-top="0"
     fit-margin-left="0"
     fit-margin-right="0"
     fit-margin-bottom="0"
     showguides="true"
     inkscape:guide-bbox="true">
    <inkscape:grid
       type="xygrid"
       id="grid3144"
       empspacing="5"
       visible="true"
       enabled="true"
       snapvisiblegridlinesonly="true" />
    <sodipodi:guide
       orientation="1,0"
       position="-4.03692,-3.15274"
       id="guide3201" />
    <sodipodi:guide
       orientation="0,1"
       position="-4.03692,-3.15274"
       id="guide3203" />
  </sodipodi:namedview>
  <metadata
     id="metadata3978">
    <rdf:RDF>
      <cc:Work
         rdf:about="">
        <dc:format>image/svg+xml</dc:format>
        <dc:type
           rdf:resource="http://purl.org/dc/dcmitype/StillImage" />
        <dc:title></dc:title>
      </cc:Work>
    </rdf:RDF>
  </metadata>
  <g
     inkscape:label="Layer 1"
     inkscape:groupmode="layer"
     id="layer1"
     transform="translate(-461.34375,212.875)">
    <g
       id="g3274"
       transform="translate(0,24.174384)">
      <g
         transform="matrix(4.5628671,0,0,4.9602836,482.1921,-272.61257)"
         id="g41">
        <use
           height="1"
           width="1"
           y="0"
           x="0"
           id="use43"
           xlink:href="#outline1"
           class="outline-big" />
        <use
           height="1"
           width="1"
           y="0"
           x="0"
           style="fill:#555753;stroke:#555753;stroke-width:8px"
           id="use45"
           xlink:href="#outline1"
           class="outline-small stroke-aluminium5" />
      </g>
      <path
         inkscape:connector-curvature="0"
         id="path47"
         style="fill:#888a85"
         d="m 757.78927,-123.80406 c -90.34477,0 -162.89435,37.698153 -162.89435,82.836734 V 226.88799 c 0,45.13858 72.54958,80.85262 162.89435,80.85262 89.4322,0 162.43807,-35.71404 162.43807,-80.85262 V -40.967326 c 0,-45.138581 -73.00587,-82.836734 -162.43807,-82.836734 z" />
      <path
         inkscape:connector-curvature="0"
         id="path49"
         style="opacity:0.5;fill:url(#linearGradient3300)"
         d="m 757.78927,-135.70874 c -90.80105,0 -90.80105,443.44935 0,443.44935 89.4322,0 162.43807,-35.21801 162.43807,-80.85262 V -54.360092 c 0,-44.642552 -73.00587,-81.348648 -162.43807,-81.348648 z"
         class="specularity" />
      <path
         inkscape:connector-curvature="0"
         id="path51"
         style="opacity:0.75;fill:url(#linearGradient3302)"
         class="high-specularity"
         d="M 675.65767,15.083879 594.89492,-26.086475 V 228.37607 c 0,24.80142 33.30893,58.03532 81.21903,67.95589 L 675.65767,15.083879 z" />
      <path
         inkscape:connector-curvature="0"
         id="path53"
         style="opacity:0.5;fill:url(#linearGradient3304)"
         d="m 594.43863,13.595794 v 87.797016 c 95.36392,74.90029 232.24994,77.38043 325.78871,0 V 13.595794 c -91.25734,80.852622 -232.70622,73.412197 -325.78871,0 z"
         class="shade" />
      <use
         transform="matrix(4.5628671,0,0,4.9602836,482.1921,-272.61257)"
         height="1"
         width="1"
         y="0"
         x="0"
         style="opacity:0.3;fill:none;stroke:#ffffff;stroke-width:9px;stroke-linejoin:round"
         id="use55"
         xlink:href="#outline1"
         class="stroke-highlight"
         clip-path="url(#clipoutline1)" />
      <g
         transform="matrix(4.5628671,0,0,4.9602836,482.1921,-272.61257)"
         id="g57">
        <g
           id="g59">
          <use
             class="outline-big"
             xlink:href="#outline2"
             id="use61"
             x="0"
             y="0"
             width="1"
             height="1" />
          <use
             class="outline-small stroke-aluminium5"
             xlink:href="#outline2"
             id="use63"
             style="fill:#555753;stroke:#555753;stroke-width:8px"
             x="0"
             y="0"
             width="1"
             height="1" />
        </g>
        <path
           class="aluminium2"
           d="m 60.7,18 c 24.3,0 43.7,10 43.7,22 v 3.5 C 104.4,56 85,66 60.7,66 36.5,66 17,56 17,43.5 V 40 C 17,28 36.5,18 60.7,18 z"
           id="path65"
           inkscape:connector-curvature="0"
           style="fill:#d3d7cf" />
        <path
           class="aluminium4"
           d="M 60.7,59 C 85,59 104.4,52.6 104.4,39.4 V 49.5 C 104.4,62 85,72 60.7,72 36.5,72 17,62 17,49.5 V 39.4 C 17,47.3 36.5,59 60.7,59 z"
           id="path67"
           inkscape:connector-curvature="0"
           style="fill:#888a85" />
        <path
           d="m 16.473,36.525 c 0,11.4 27.282,17.545 44.227,17.545 17.652,0 43.7,-3.745 43.7,-17.545 v 3.359 c 0,16.05 -29.4,19.25 -43.7,19.25 -13.8,0 -44.319,-8.339 -44.319,-20.339"
           style="opacity:0.5;fill:url(#linearGradient3306)"
           id="path69"
           inkscape:connector-curvature="0" />
        <path
           class="specularity"
           d="M 61,59 C 33.7,59 4.5,46.6 26.5,62.7 c 8.2,6 20.2,9 34.5,9 14.4,0 26,-3 34.7,-9 C 117,47.5 88,59 61,59 z"
           style="opacity:0.5;fill:url(#linearGradient3308)"
           id="path71"
           inkscape:connector-curvature="0" />
        <use
           clip-path="url(#clipoutline2)"
           class="stroke-highlight"
           xlink:href="#outline2"
           id="use73"
           style="opacity:0.3;fill:none;stroke:#ffffff;stroke-width:9px;stroke-linejoin:round"
           x="0"
           y="0"
           width="1"
           height="1" />
        <g
           id="g75">
          <path
             class="shade"
             d="m 41.4,35.6 h 40.1 c 4.5,0 4.5,6.9 0,6.9 H 41.4 c -4.4,0 -4.6,-6.9 0,-6.9 z"
             style="opacity:0.5;fill:url(#linearGradient3310)"
             id="path77"
             inkscape:connector-curvature="0" />
          <path
             d="m 61.6,19.3 c -18.6,0 -20.1,6 -20.1,12.3 v 6.8 c 0,2.9 7.5,2.3 7.5,0 V 36 c 0,-4.4 4.5,-5.5 12.6,-5.5 8.1,0 12.4,1.1 12.4,5.5 v 2.4 c 0,2.3 7.6,2.3 7.6,0 v -6.8 c 0,-6.3 -1.6,-12.3 -20,-12.3 z"
             style="fill:#000000"
             id="path79"
             inkscape:connector-curvature="0" />
          <path
             d="M 61.6,21.3 C 53.4,21.3 47,22.5 47,27.4 h 29 c 0,-4.9 -6.3,-6.1 -14.4,-6.1 z"
             class="specularity"
             style="opacity:0.5;fill:url(#linearGradient3312)"
             id="path81"
             inkscape:connector-curvature="0" />
        </g>
      </g>
      <g
         transform="matrix(4.5628671,0,0,4.9602836,482.1921,-272.61257)"
         id="g83">
        <path
           d="M 32,83.6 V 99 c 0,6.9 8,7 8,0 V 83.6 c 0,-5.3 -8,-5.7 -8,0 z m 48,0 V 99 c 1.9,5.9 7.5,4.7 8,0 V 83.6 c 0,-5 -7.8,-4.9 -8,0 z M 47.4,87.7 V 106 c 0,6.3 8.5,5.7 8.6,0 V 87.7 c 0,-5.4 -8.5,-5.7 -8.6,0 z m 16.6,0 V 106 c 0,6.5 8.9,5.8 9,0 V 87.7 c -1.4,-6.1 -8.2,-5.5 -9,0 z"
           style="opacity:0.5;fill:#000000"
           id="path85"
           inkscape:connector-curvature="0" />
        <path
           d="m 88,91 c 0,4.2 -8,4 -8,0 v 7.4 c 0,5.6 8,6.3 8,0 V 91 z m -56,0 v 7.4 c 0,8 8,7.6 8,0 V 91 c 0,4.9 -8,4.6 -8,0 z m 24,6.8 c 0,5.1 -8.6,4.2 -8.6,0 v 7.9 c 0,6.9 8.5,5.9 8.6,0 v -7.9 z m 17,0 c 0,5.8 -9,4.9 -9,0 v 7.9 c 0,7.1 9,6.3 9,0 v -7.9 z"
           style="opacity:0.5;fill:url(#linearGradient3314)"
           id="path87"
           inkscape:connector-curvature="0" />
      </g>
    </g>
  </g>
  <style
     type="text/css"
     id="style33">.specularity {opacity:0.5;}
	.high-specularity {opacity:0.75;}
	.low-specularity {opacity:0.25;}
	.full-specularity {opacity:1;}
	.shade{opacity:0.5;}
	.black {fill:#000000;}
	.white {fill:#ffffff;}
	.outline-big {stroke-width:16;stroke:none;opacity:0.;fill:none;}
	.outline-small {stroke-width:8px;stroke:black;opacity:1;fill:none;}
	.stroke-highlight {fill:none;stroke:white;opacity:0.3;stroke-width:9px;stroke-linejoin:round;}
				.base-shadow 	{fill:black;opacity:0.4;}
	.stroke-aluminium5	{stroke:#555753;}
	.aluminium1	{fill:#eeeeec;}
	.aluminium2	{fill:#d3d7cf;}
	.aluminium3	{fill:#babdb6;}
	.aluminium4	{fill:#888a85;}
	.aluminium5	{fill:#555753;}
	.aluminium6	{fill:#2e3436;}</style>
</svg>
