<?xml version="1.0" encoding="UTF-8" standalone="no"?>
<svg
   xmlns:dc="http://purl.org/dc/elements/1.1/"
   xmlns:cc="http://creativecommons.org/ns#"
   xmlns:rdf="http://www.w3.org/1999/02/22-rdf-syntax-ns#"
   xmlns:svg="http://www.w3.org/2000/svg"
   xmlns="http://www.w3.org/2000/svg"
   xmlns:xlink="http://www.w3.org/1999/xlink"
   xmlns:sodipodi="http://sodipodi.sourceforge.net/DTD/sodipodi-0.dtd"
   xmlns:inkscape="http://www.inkscape.org/namespaces/inkscape"
   width="600"
   height="600"
   id="svg3493"
   version="1.1"
   inkscape:version="0.48+devel r9772"
   sodipodi:docname="filePy.svg"
   inkscape:export-filename="/Users/tommaso/local/src/Fringes/proj/python.png"
   inkscape:export-xdpi="937.5"
   inkscape:export-ydpi="937.5">
  <metadata
     id="metadata3546">
    <rdf:RDF>
      <cc:Work
         rdf:about="">
        <dc:format>image/svg+xml</dc:format>
        <dc:type
           rdf:resource="http://purl.org/dc/dcmitype/StillImage" />
        <dc:title />
      </cc:Work>
    </rdf:RDF>
  </metadata>
  <sodipodi:namedview
     pagecolor="#ffffff"
     bordercolor="#666666"
     borderopacity="1"
     objecttolerance="10"
     gridtolerance="10"
     guidetolerance="10"
     inkscape:pageopacity="0"
     inkscape:pageshadow="2"
     inkscape:window-width="1052"
     inkscape:window-height="754"
     id="namedview3544"
     showgrid="false"
     inkscape:zoom="0.82833333"
     inkscape:cx="147.2837"
     inkscape:cy="300"
     inkscape:window-x="0"
     inkscape:window-y="0"
     inkscape:window-maximized="0"
     inkscape:current-layer="svg3493" />
  <defs
     id="defs3495">
    <linearGradient
       id="lg1">
      <stop
         stop-color="#3778ae"
         offset="0"
         id="stop3498" />
      <stop
         stop-color="#366c99"
         offset="1"
         id="stop3500" />
    </linearGradient>
    <linearGradient
       id="lg2">
      <stop
         stop-color="#fff"
         offset="0"
         id="stop3503" />
      <stop
         stop-color="#fff"
         stop-opacity="0.165"
         offset="1"
         id="stop3505" />
    </linearGradient>
    <linearGradient
       id="lg3">
      <stop
         stop-color="#ffe253"
         offset="0"
         id="stop3508" />
      <stop
         stop-color="#ffca1c"
         offset="1"
         id="stop3510" />
    </linearGradient>
    <linearGradient
       id="lg4">
      <stop
         stop-color="#000"
         offset="0"
         id="stop3513" />
      <stop
         stop-color="#000"
         stop-opacity="0"
         offset="1"
         id="stop3515" />
    </linearGradient>
    <linearGradient
       x1="94.693001"
       y1="112.511"
       x2="94.693001"
       y2="64.053001"
       id="lg5"
       xlink:href="#lg2"
       gradientUnits="userSpaceOnUse"
       gradientTransform="matrix(0.353878,0,0,0.353878,-17.3795,532.588)" />
    <linearGradient
       x1="59.728001"
       y1="102"
       x2="142.62"
       y2="102"
       id="lg6"
       xlink:href="#lg1"
       gradientUnits="userSpaceOnUse"
       gradientTransform="matrix(0.353878,0,0,0.353878,-17.3795,532.588)" />
    <linearGradient
       x1="94.693001"
       y1="112.511"
       x2="94.693001"
       y2="64.053001"
       id="lg7"
       xlink:href="#lg2"
       gradientUnits="userSpaceOnUse"
       gradientTransform="matrix(0.353878,0,0,0.353878,-6.29697,544.05463)" />
    <linearGradient
       x1="119.191"
       y1="89.129997"
       x2="116.965"
       y2="169.27901"
       id="lg8"
       xlink:href="#lg3"
       gradientUnits="userSpaceOnUse"
       gradientTransform="matrix(0.353878,0,0,0.353878,-16.3897,534.003)" />
    <radialGradient
       cx="15.115"
       cy="63.965"
       r="12.289"
       fx="15.115"
       fy="63.965"
       id="rg1"
       xlink:href="#lg4"
       gradientUnits="userSpaceOnUse"
       gradientTransform="matrix(1.6,0,0,0.551754,-0.183975,556.83575)" />
    <linearGradient
       gradientTransform="translate(2,-2)"
       gradientUnits="userSpaceOnUse"
       y2="957.36218"
       x2="80"
       y1="944.36218"
       x1="93"
       id="linearGradient3614"
       xlink:href="#linearGradient3608"
       inkscape:collect="always" />
    <linearGradient
       gradientTransform="translate(2,922.36218)"
       gradientUnits="userSpaceOnUse"
       y2="-112"
       x2="-80"
       y1="123"
       x1="105"
       id="linearGradient3606"
       xlink:href="#linearGradient3600"
       inkscape:collect="always" />
    <linearGradient
       id="linearGradient3600"
       inkscape:collect="always">
      <stop
         id="stop3602"
         offset="0"
         style="stop-color:#e6e6e6;stop-opacity:1;" />
      <stop
         id="stop3604"
         offset="1"
         style="stop-color:#f9f9f9;stop-opacity:1" />
    </linearGradient>
    <linearGradient
       id="linearGradient3608"
       inkscape:collect="always">
      <stop
         id="stop3610"
         offset="0"
         style="stop-color:#cccccc;stop-opacity:1" />
      <stop
         style="stop-color:#e6e6e6;stop-opacity:1"
         offset="0.22007781"
         id="stop3616" />
      <stop
         id="stop3618"
         offset="0.46932641"
         style="stop-color:#ffffff;stop-opacity:1" />
      <stop
         id="stop3612"
         offset="1"
         style="stop-color:#e6e6e6;stop-opacity:1" />
    </linearGradient>
    <radialGradient
       gradientTransform="matrix(1.6,0,0,0.551754,-0.183975,556.83575)"
       gradientUnits="userSpaceOnUse"
       xlink:href="#lg4-3"
       id="rg1-2"
       fy="63.965"
       fx="15.115"
       r="12.289"
       cy="63.965"
       cx="15.115" />
    <linearGradient
       gradientTransform="matrix(0.353878,0,0,0.353878,-16.3897,534.003)"
       gradientUnits="userSpaceOnUse"
       xlink:href="#lg3-9"
       id="lg8-6"
       y2="169.27901"
       x2="116.965"
       y1="89.129997"
       x1="119.191" />
    <linearGradient
       gradientTransform="matrix(0.353878,0,0,0.353878,-6.29697,544.05463)"
       gradientUnits="userSpaceOnUse"
       xlink:href="#lg2-2"
       id="lg7-7"
       y2="64.053001"
       x2="94.693001"
       y1="112.511"
       x1="94.693001" />
    <linearGradient
       gradientTransform="matrix(0.353878,0,0,0.353878,-17.3795,532.588)"
       gradientUnits="userSpaceOnUse"
       xlink:href="#lg1-7"
       id="lg6-5"
       y2="102"
       x2="142.62"
       y1="102"
       x1="59.728001" />
    <linearGradient
       gradientTransform="matrix(0.353878,0,0,0.353878,-17.3795,532.588)"
       gradientUnits="userSpaceOnUse"
       xlink:href="#lg2-2"
       id="lg5-6"
       y2="64.053001"
       x2="94.693001"
       y1="112.511"
       x1="94.693001" />
    <linearGradient
       id="lg4-3">
      <stop
         id="stop3513-9"
         offset="0"
         stop-color="#000" />
      <stop
         id="stop3515-8"
         offset="1"
         stop-opacity="0"
         stop-color="#000" />
    </linearGradient>
    <linearGradient
       id="lg3-9">
      <stop
         id="stop3508-7"
         offset="0"
         stop-color="#ffe253" />
      <stop
         id="stop3510-0"
         offset="1"
         stop-color="#ffca1c" />
    </linearGradient>
    <linearGradient
       id="lg2-2">
      <stop
         id="stop3503-3"
         offset="0"
         stop-color="#fff" />
      <stop
         id="stop3505-9"
         offset="1"
         stop-opacity="0.165"
         stop-color="#fff" />
    </linearGradient>
    <linearGradient
       id="lg1-7">
      <stop
         id="stop3498-9"
         offset="0"
         stop-color="#3778ae" />
      <stop
         id="stop3500-0"
         offset="1"
         stop-color="#366c99" />
    </linearGradient>
    <radialGradient
       r="19.0625"
       fy="6.4576745"
       fx="23.447077"
       cy="6.4576745"
       cx="23.447077"
       gradientTransform="matrix(-1.314471,-0.01006312,-0.01022964,1.336221,46.22108,-4.909887)"
       gradientUnits="userSpaceOnUse"
       id="radialGradient3286"
       xlink:href="#linearGradient4991"
       inkscape:collect="always" />
    <linearGradient
       y2="12.583769"
       x2="12.624337"
       y1="27.394117"
       x1="33.059906"
       gradientTransform="matrix(0.914114,0,0,0.914114,-3.868698,-2.706902)"
       gradientUnits="userSpaceOnUse"
       id="linearGradient3284"
       xlink:href="#linearGradient2187"
       inkscape:collect="always" />
    <linearGradient
       y2="21.118431"
       x2="7"
       y1="18.25"
       x1="12.25"
       gradientUnits="userSpaceOnUse"
       id="linearGradient3282"
       xlink:href="#linearGradient6925"
       inkscape:collect="always" />
    <linearGradient
       y2="16.743431"
       x2="8.8953285"
       y1="15.868432"
       x1="14.751649"
       gradientUnits="userSpaceOnUse"
       id="linearGradient3280"
       xlink:href="#linearGradient6901"
       inkscape:collect="always" />
    <radialGradient
       r="15.644737"
       fy="36.421127"
       fx="24.837126"
       cy="36.421127"
       cx="24.837126"
       gradientTransform="matrix(1,0,0,0.536723,0,16.87306)"
       gradientUnits="userSpaceOnUse"
       id="radialGradient3278"
       xlink:href="#linearGradient8662"
       inkscape:collect="always" />
    <inkscape:perspective
       sodipodi:type="inkscape:persp3d"
       inkscape:vp_x="0 : 24 : 1"
       inkscape:vp_y="0 : 1000 : 0"
       inkscape:vp_z="48 : 24 : 1"
       inkscape:persp3d-origin="24 : 16 : 1"
       id="perspective104" />
    <radialGradient
       inkscape:collect="always"
       xlink:href="#linearGradient5060"
       id="radialGradient5031"
       gradientUnits="userSpaceOnUse"
       gradientTransform="matrix(-2.774389,0,0,1.969706,112.7623,-872.8854)"
       cx="605.71429"
       cy="486.64789"
       fx="605.71429"
       fy="486.64789"
       r="117.14286" />
    <linearGradient
       inkscape:collect="always"
       id="linearGradient5060">
      <stop
         style="stop-color:black;stop-opacity:1;"
         offset="0"
         id="stop5062" />
      <stop
         style="stop-color:black;stop-opacity:0;"
         offset="1"
         id="stop5064" />
    </linearGradient>
    <radialGradient
       inkscape:collect="always"
       xlink:href="#linearGradient5060"
       id="radialGradient5029"
       gradientUnits="userSpaceOnUse"
       gradientTransform="matrix(2.774389,0,0,1.969706,-1891.633,-872.8854)"
       cx="605.71429"
       cy="486.64789"
       fx="605.71429"
       fy="486.64789"
       r="117.14286" />
    <linearGradient
       id="linearGradient5048">
      <stop
         style="stop-color:black;stop-opacity:0;"
         offset="0"
         id="stop5050" />
      <stop
         id="stop5056"
         offset="0.5"
         style="stop-color:black;stop-opacity:1;" />
      <stop
         style="stop-color:black;stop-opacity:0;"
         offset="1"
         id="stop5052" />
    </linearGradient>
    <linearGradient
       inkscape:collect="always"
       xlink:href="#linearGradient5048"
       id="linearGradient5027"
       gradientUnits="userSpaceOnUse"
       gradientTransform="matrix(2.774389,0,0,1.969706,-1892.179,-872.8854)"
       x1="302.85715"
       y1="366.64789"
       x2="302.85715"
       y2="609.50507" />
    <linearGradient
       inkscape:collect="always"
       id="linearGradient6925">
      <stop
         style="stop-color:#204a87;stop-opacity:1;"
         offset="0"
         id="stop6927" />
      <stop
         style="stop-color:#204a87;stop-opacity:0;"
         offset="1"
         id="stop6929" />
    </linearGradient>
    <linearGradient
       inkscape:collect="always"
       id="linearGradient6901">
      <stop
         style="stop-color:#3465a4;stop-opacity:1;"
         offset="0"
         id="stop6903" />
      <stop
         style="stop-color:#3465a4;stop-opacity:0;"
         offset="1"
         id="stop6905" />
    </linearGradient>
    <linearGradient
       inkscape:collect="always"
       id="linearGradient4991">
      <stop
         style="stop-color:#ffffff;stop-opacity:1;"
         offset="0"
         id="stop4993" />
      <stop
         style="stop-color:#ffffff;stop-opacity:0;"
         offset="1"
         id="stop4995" />
    </linearGradient>
    <radialGradient
       inkscape:collect="always"
       xlink:href="#linearGradient4991"
       id="radialGradient4997"
       cx="23.447077"
       cy="6.4576745"
       fx="23.447077"
       fy="6.4576745"
       r="19.0625"
       gradientTransform="matrix(-1.314471,-0.01006312,-0.01022964,1.336221,46.22108,-4.909887)"
       gradientUnits="userSpaceOnUse" />
    <linearGradient
       id="linearGradient2187"
       inkscape:collect="always">
      <stop
         id="stop2189"
         offset="0"
         style="stop-color:#ffffff;stop-opacity:1;" />
      <stop
         id="stop2191"
         offset="1"
         style="stop-color:#ffffff;stop-opacity:0;" />
    </linearGradient>
    <linearGradient
       inkscape:collect="always"
       xlink:href="#linearGradient2187"
       id="linearGradient1764"
       gradientUnits="userSpaceOnUse"
       gradientTransform="matrix(0.914114,0,0,0.914114,-3.868698,-2.706902)"
       x1="33.059906"
       y1="27.394117"
       x2="12.624337"
       y2="12.583769" />
    <linearGradient
       inkscape:collect="always"
       id="linearGradient8662">
      <stop
         style="stop-color:#000000;stop-opacity:1;"
         offset="0"
         id="stop8664" />
      <stop
         style="stop-color:#000000;stop-opacity:0;"
         offset="1"
         id="stop8666" />
    </linearGradient>
    <radialGradient
       inkscape:collect="always"
       xlink:href="#linearGradient8662"
       id="radialGradient8668"
       cx="24.837126"
       cy="36.421127"
       fx="24.837126"
       fy="36.421127"
       r="15.644737"
       gradientTransform="matrix(1,0,0,0.536723,0,16.87306)"
       gradientUnits="userSpaceOnUse" />
    <linearGradient
       id="linearGradient2555">
      <stop
         id="stop2557"
         offset="0"
         style="stop-color:#ffffff;stop-opacity:1;" />
      <stop
         style="stop-color:#e6e6e6;stop-opacity:1.0000000;"
         offset="0.50000000"
         id="stop2561" />
      <stop
         id="stop2563"
         offset="0.75000000"
         style="stop-color:#ffffff;stop-opacity:1.0000000;" />
      <stop
         style="stop-color:#e1e1e1;stop-opacity:1.0000000;"
         offset="0.84166664"
         id="stop2565" />
      <stop
         id="stop2559"
         offset="1.0000000"
         style="stop-color:#ffffff;stop-opacity:1.0000000;" />
    </linearGradient>
    <linearGradient
       id="linearGradient4274">
      <stop
         style="stop-color:#ffffff;stop-opacity:0.25490198;"
         offset="0.0000000"
         id="stop4276" />
      <stop
         style="stop-color:#ffffff;stop-opacity:1.0000000;"
         offset="1.0000000"
         id="stop4278" />
    </linearGradient>
    <linearGradient
       id="linearGradient4264"
       inkscape:collect="always">
      <stop
         id="stop4266"
         offset="0"
         style="stop-color:#000000;stop-opacity:1;" />
      <stop
         id="stop4268"
         offset="1"
         style="stop-color:#000000;stop-opacity:0;" />
    </linearGradient>
    <linearGradient
       id="linearGradient4254"
       inkscape:collect="always">
      <stop
         id="stop4256"
         offset="0"
         style="stop-color:#ffffff;stop-opacity:1;" />
      <stop
         id="stop4258"
         offset="1"
         style="stop-color:#ffffff;stop-opacity:0;" />
    </linearGradient>
    <linearGradient
       id="linearGradient4244">
      <stop
         id="stop4246"
         offset="0.0000000"
         style="stop-color:#e4e4e4;stop-opacity:1.0000000;" />
      <stop
         id="stop4248"
         offset="1.0000000"
         style="stop-color:#d3d3d3;stop-opacity:1.0000000;" />
    </linearGradient>
    <linearGradient
       id="linearGradient4236"
       inkscape:collect="always">
      <stop
         id="stop4238"
         offset="0"
         style="stop-color:#eeeeee;stop-opacity:1;" />
      <stop
         id="stop4240"
         offset="1"
         style="stop-color:#eeeeee;stop-opacity:0;" />
    </linearGradient>
    <linearGradient
       id="linearGradient4228">
      <stop
         id="stop4230"
         offset="0.0000000"
         style="stop-color:#bbbbbb;stop-opacity:1.0000000;" />
      <stop
         id="stop4232"
         offset="1.0000000"
         style="stop-color:#9f9f9f;stop-opacity:1.0000000;" />
    </linearGradient>
    <linearGradient
       id="linearGradient4184">
      <stop
         id="stop4186"
         offset="0.0000000"
         style="stop-color:#838383;stop-opacity:1.0000000;" />
      <stop
         id="stop4188"
         offset="1.0000000"
         style="stop-color:#bbbbbb;stop-opacity:0.0000000;" />
    </linearGradient>
    <linearGradient
       gradientTransform="translate(0.795493,3.79918)"
       y2="35.281250"
       x2="24.687500"
       y1="35.281250"
       x1="7.0625000"
       gradientUnits="userSpaceOnUse"
       id="linearGradient4209"
       xlink:href="#linearGradient4184"
       inkscape:collect="always" />
    <linearGradient
       gradientUnits="userSpaceOnUse"
       y2="40.943935"
       x2="36.183067"
       y1="28.481176"
       x1="7.6046205"
       id="linearGradient4234"
       xlink:href="#linearGradient4228"
       inkscape:collect="always"
       gradientTransform="translate(0,5.125)" />
    <linearGradient
       gradientUnits="userSpaceOnUse"
       y2="33.758667"
       x2="12.221823"
       y1="37.205811"
       x1="12.277412"
       id="linearGradient4242"
       xlink:href="#linearGradient4236"
       inkscape:collect="always"
       gradientTransform="translate(0,5.125)" />
    <radialGradient
       gradientUnits="userSpaceOnUse"
       gradientTransform="matrix(1.286242,0.781698,-0.710782,1.169552,-2.354348,0.24814)"
       r="20.935817"
       fy="2.9585190"
       fx="15.571491"
       cy="2.9585190"
       cx="15.571491"
       id="radialGradient4250"
       xlink:href="#linearGradient4244"
       inkscape:collect="always" />
    <linearGradient
       gradientUnits="userSpaceOnUse"
       y2="47.620636"
       x2="44.096100"
       y1="4.4331360"
       x1="12.378357"
       id="linearGradient4260"
       xlink:href="#linearGradient4254"
       inkscape:collect="always"
       gradientTransform="translate(0,5.125)" />
    <radialGradient
       gradientUnits="userSpaceOnUse"
       gradientTransform="matrix(1.000000,0.000000,0.000000,0.651032,-2.885063e-16,9.455693)"
       r="23.555494"
       fy="27.096155"
       fx="23.201941"
       cy="27.096155"
       cx="23.201941"
       id="radialGradient4270"
       xlink:href="#linearGradient4264"
       inkscape:collect="always" />
    <linearGradient
       gradientUnits="userSpaceOnUse"
       y2="26.357183"
       x2="23.688078"
       y1="11.318835"
       x1="23.688078"
       id="linearGradient4272"
       xlink:href="#linearGradient4274"
       inkscape:collect="always"
       gradientTransform="translate(0,5.125)" />
    <linearGradient
       inkscape:collect="always"
       xlink:href="#linearGradient2555"
       id="linearGradient2553"
       x1="33.431175"
       y1="31.964777"
       x2="21.747974"
       y2="11.780679"
       gradientUnits="userSpaceOnUse" />
    <linearGradient
       inkscape:collect="always"
       xlink:href="#linearGradient6901"
       id="linearGradient6907"
       x1="14.751649"
       y1="15.868432"
       x2="8.8953285"
       y2="16.743431"
       gradientUnits="userSpaceOnUse" />
    <linearGradient
       inkscape:collect="always"
       xlink:href="#linearGradient6925"
       id="linearGradient6931"
       x1="12.25"
       y1="18.25"
       x2="7"
       y2="21.118431"
       gradientUnits="userSpaceOnUse" />
    <linearGradient
       y2="64.053001"
       x2="94.693001"
       y1="112.511"
       x1="94.693001"
       gradientTransform="matrix(0.353878,0,0,0.353878,-17.3795,532.588)"
       gradientUnits="userSpaceOnUse"
       id="linearGradient4090"
       xlink:href="#lg2-2-7"
       inkscape:collect="always" />
    <linearGradient
       y2="102"
       x2="142.62"
       y1="102"
       x1="59.728001"
       gradientTransform="matrix(0.353878,0,0,0.353878,-17.3795,532.588)"
       gradientUnits="userSpaceOnUse"
       id="linearGradient4088"
       xlink:href="#lg1-7-1"
       inkscape:collect="always" />
    <linearGradient
       y2="64.053001"
       x2="94.693001"
       y1="112.511"
       x1="94.693001"
       gradientTransform="matrix(0.353878,0,0,0.353878,-6.29697,544.05463)"
       gradientUnits="userSpaceOnUse"
       id="linearGradient4086"
       xlink:href="#lg2-2-7"
       inkscape:collect="always" />
    <linearGradient
       y2="169.27901"
       x2="116.965"
       y1="89.129997"
       x1="119.191"
       gradientTransform="matrix(0.353878,0,0,0.353878,-16.3897,534.003)"
       gradientUnits="userSpaceOnUse"
       id="linearGradient4084"
       xlink:href="#lg3-3"
       inkscape:collect="always" />
    <radialGradient
       r="12.289"
       fy="63.965"
       fx="15.115"
       cy="63.965"
       cx="15.115"
       gradientTransform="matrix(1.6,0,0,0.551754,-0.183975,556.83575)"
       gradientUnits="userSpaceOnUse"
       id="radialGradient4082"
       xlink:href="#lg4-6"
       inkscape:collect="always" />
    <linearGradient
       y2="64.053001"
       x2="94.693001"
       y1="112.511"
       x1="94.693001"
       gradientTransform="matrix(0.353878,0,0,0.353878,-17.3795,532.588)"
       gradientUnits="userSpaceOnUse"
       id="linearGradient4065"
       xlink:href="#lg2-2-7"
       inkscape:collect="always" />
    <linearGradient
       y2="102"
       x2="142.62"
       y1="102"
       x1="59.728001"
       gradientTransform="matrix(0.353878,0,0,0.353878,-17.3795,532.588)"
       gradientUnits="userSpaceOnUse"
       id="linearGradient4063"
       xlink:href="#lg1-7-1"
       inkscape:collect="always" />
    <linearGradient
       y2="64.053001"
       x2="94.693001"
       y1="112.511"
       x1="94.693001"
       gradientTransform="matrix(0.353878,0,0,0.353878,-6.29697,544.05463)"
       gradientUnits="userSpaceOnUse"
       id="linearGradient4061"
       xlink:href="#lg2-2-7"
       inkscape:collect="always" />
    <linearGradient
       y2="169.27901"
       x2="116.965"
       y1="89.129997"
       x1="119.191"
       gradientTransform="matrix(0.353878,0,0,0.353878,-16.3897,534.003)"
       gradientUnits="userSpaceOnUse"
       id="linearGradient4059"
       xlink:href="#lg3-3"
       inkscape:collect="always" />
    <radialGradient
       r="12.289"
       fy="63.965"
       fx="15.115"
       cy="63.965"
       cx="15.115"
       gradientTransform="matrix(1.6,0,0,0.551754,-0.183975,556.83575)"
       gradientUnits="userSpaceOnUse"
       id="radialGradient4057"
       xlink:href="#lg4-6"
       inkscape:collect="always" />
    <linearGradient
       y2="957.36218"
       x2="80"
       y1="944.36218"
       x1="93"
       gradientTransform="translate(2,-2)"
       gradientUnits="userSpaceOnUse"
       id="linearGradient4055"
       xlink:href="#linearGradient3608-1"
       inkscape:collect="always" />
    <linearGradient
       y2="-112"
       x2="-80"
       y1="123"
       x1="105"
       gradientTransform="translate(2,922.36218)"
       gradientUnits="userSpaceOnUse"
       id="linearGradient4053"
       xlink:href="#linearGradient3600-2"
       inkscape:collect="always" />
    <linearGradient
       id="lg1-7-1">
      <stop
         stop-color="#3778ae"
         offset="0"
         id="stop3498-7" />
      <stop
         stop-color="#366c99"
         offset="1"
         id="stop3500-3" />
    </linearGradient>
    <linearGradient
       id="lg2-2-7">
      <stop
         stop-color="#fff"
         offset="0"
         id="stop3503-5" />
      <stop
         stop-color="#fff"
         stop-opacity="0.165"
         offset="1"
         id="stop3505-6" />
    </linearGradient>
    <linearGradient
       id="lg3-3">
      <stop
         stop-color="#ffe253"
         offset="0"
         id="stop3508-4" />
      <stop
         stop-color="#ffca1c"
         offset="1"
         id="stop3510-0-1" />
    </linearGradient>
    <linearGradient
       id="lg4-6">
      <stop
         stop-color="#000"
         offset="0"
         id="stop3513-0" />
      <stop
         stop-color="#000"
         stop-opacity="0"
         offset="1"
         id="stop3515-4" />
    </linearGradient>
    <linearGradient
       x1="94.693001"
       y1="112.511"
       x2="94.693001"
       y2="64.053001"
       id="lg5-0"
       xlink:href="#lg2-2-7"
       gradientUnits="userSpaceOnUse"
       gradientTransform="matrix(0.353878,0,0,0.353878,-17.3795,532.588)" />
    <linearGradient
       x1="59.728001"
       y1="102"
       x2="142.62"
       y2="102"
       id="lg6-5-4"
       xlink:href="#lg1-7-1"
       gradientUnits="userSpaceOnUse"
       gradientTransform="matrix(0.353878,0,0,0.353878,-17.3795,532.588)" />
    <linearGradient
       x1="94.693001"
       y1="112.511"
       x2="94.693001"
       y2="64.053001"
       id="lg7-6"
       xlink:href="#lg2-2-7"
       gradientUnits="userSpaceOnUse"
       gradientTransform="matrix(0.353878,0,0,0.353878,-6.29697,544.05463)" />
    <linearGradient
       x1="119.191"
       y1="89.129997"
       x2="116.965"
       y2="169.27901"
       id="lg8-8"
       xlink:href="#lg3-3"
       gradientUnits="userSpaceOnUse"
       gradientTransform="matrix(0.353878,0,0,0.353878,-16.3897,534.003)" />
    <radialGradient
       cx="15.115"
       cy="63.965"
       r="12.289"
       fx="15.115"
       fy="63.965"
       id="rg1-5"
       xlink:href="#lg4-6"
       gradientUnits="userSpaceOnUse"
       gradientTransform="matrix(1.6,0,0,0.551754,-0.183975,556.83575)" />
    <radialGradient
       inkscape:collect="always"
       xlink:href="#lg4-6"
       id="radialGradient3106-3"
       gradientUnits="userSpaceOnUse"
       gradientTransform="matrix(1.6,0,0,0.551754,-0.183975,556.83575)"
       cx="15.115"
       cy="63.965"
       fx="15.115"
       fy="63.965"
       r="12.289" />
    <linearGradient
       inkscape:collect="always"
       xlink:href="#lg3-3"
       id="linearGradient3108-7"
       gradientUnits="userSpaceOnUse"
       gradientTransform="matrix(0.353878,0,0,0.353878,-16.3897,534.003)"
       x1="119.191"
       y1="89.129997"
       x2="116.965"
       y2="169.27901" />
    <linearGradient
       inkscape:collect="always"
       xlink:href="#lg2-2-7"
       id="linearGradient3110-6"
       gradientUnits="userSpaceOnUse"
       gradientTransform="matrix(0.353878,0,0,0.353878,-6.29697,544.05463)"
       x1="94.693001"
       y1="112.511"
       x2="94.693001"
       y2="64.053001" />
    <linearGradient
       inkscape:collect="always"
       xlink:href="#lg1-7-1"
       id="linearGradient3112-8"
       gradientUnits="userSpaceOnUse"
       gradientTransform="matrix(0.353878,0,0,0.353878,-17.3795,532.588)"
       x1="59.728001"
       y1="102"
       x2="142.62"
       y2="102" />
    <linearGradient
       inkscape:collect="always"
       xlink:href="#lg2-2-7"
       id="linearGradient3114-6"
       gradientUnits="userSpaceOnUse"
       gradientTransform="matrix(0.353878,0,0,0.353878,-17.3795,532.588)"
       x1="94.693001"
       y1="112.511"
       x2="94.693001"
       y2="64.053001" />
    <linearGradient
       gradientTransform="translate(2,-2)"
       gradientUnits="userSpaceOnUse"
       y2="957.36218"
       x2="80"
       y1="944.36218"
       x1="93"
       id="linearGradient3614-8"
       xlink:href="#linearGradient3608-1"
       inkscape:collect="always" />
    <linearGradient
       gradientTransform="translate(2,922.36218)"
       gradientUnits="userSpaceOnUse"
       y2="-112"
       x2="-80"
       y1="123"
       x1="105"
       id="linearGradient3606-7"
       xlink:href="#linearGradient3600-2"
       inkscape:collect="always" />
    <linearGradient
       id="linearGradient3600-2"
       inkscape:collect="always">
      <stop
         id="stop3602-26"
         offset="0"
         style="stop-color:#e6e6e6;stop-opacity:1;" />
      <stop
         id="stop3604-6"
         offset="1"
         style="stop-color:#f9f9f9;stop-opacity:1" />
    </linearGradient>
    <linearGradient
       id="linearGradient3608-1"
       inkscape:collect="always">
      <stop
         id="stop3610-8"
         offset="0"
         style="stop-color:#cccccc;stop-opacity:1" />
      <stop
         style="stop-color:#e6e6e6;stop-opacity:1"
         offset="0.22007781"
         id="stop3616-8" />
      <stop
         id="stop3618-3"
         offset="0.46932641"
         style="stop-color:#ffffff;stop-opacity:1" />
      <stop
         id="stop3612-5"
         offset="1"
         style="stop-color:#e6e6e6;stop-opacity:1" />
    </linearGradient>
    <inkscape:perspective
       sodipodi:type="inkscape:persp3d"
       inkscape:vp_x="0 : 24 : 1"
       inkscape:vp_y="0 : 1000 : 0"
       inkscape:vp_z="48 : 24 : 1"
       inkscape:persp3d-origin="24 : 16 : 1"
       id="perspective22" />
    <linearGradient
       id="linearGradient3264">
      <stop
         style="stop-color:#c9c9c9;stop-opacity:1;"
         offset="0"
         id="stop3266" />
      <stop
         id="stop3276"
         offset="0.25"
         style="stop-color:#f8f8f8;stop-opacity:1;" />
      <stop
         id="stop3272"
         offset="0.5"
         style="stop-color:#e2e2e2;stop-opacity:1;" />
      <stop
         style="stop-color:#b0b0b0;stop-opacity:1;"
         offset="0.75"
         id="stop3274" />
      <stop
         style="stop-color:#c9c9c9;stop-opacity:1;"
         offset="1"
         id="stop3268" />
    </linearGradient>
    <radialGradient
       gradientTransform="matrix(1.6,0,0,0.551754,-0.183975,556.83575)"
       gradientUnits="userSpaceOnUse"
       xlink:href="#lg4-5"
       id="rg1-4"
       fy="63.965"
       fx="15.115"
       r="12.289"
       cy="63.965"
       cx="15.115" />
    <linearGradient
       gradientTransform="matrix(0.353878,0,0,0.353878,-16.3897,534.003)"
       gradientUnits="userSpaceOnUse"
       xlink:href="#lg3-36"
       id="lg8-5"
       y2="169.27901"
       x2="116.965"
       y1="89.129997"
       x1="119.191" />
    <linearGradient
       gradientTransform="matrix(0.353878,0,0,0.353878,-6.29697,544.05463)"
       gradientUnits="userSpaceOnUse"
       xlink:href="#lg2-5"
       id="lg7-5"
       y2="64.053001"
       x2="94.693001"
       y1="112.511"
       x1="94.693001" />
    <linearGradient
       gradientTransform="matrix(0.353878,0,0,0.353878,-17.3795,532.588)"
       gradientUnits="userSpaceOnUse"
       xlink:href="#lg1-3"
       id="lg6-7"
       y2="102"
       x2="142.62"
       y1="102"
       x1="59.728001" />
    <linearGradient
       gradientTransform="matrix(0.353878,0,0,0.353878,-17.3795,532.588)"
       gradientUnits="userSpaceOnUse"
       xlink:href="#lg2-5"
       id="lg5-1"
       y2="64.053001"
       x2="94.693001"
       y1="112.511"
       x1="94.693001" />
    <linearGradient
       id="lg4-5">
      <stop
         id="stop3513-4"
         offset="0"
         stop-color="#000" />
      <stop
         id="stop3515-9"
         offset="1"
         stop-opacity="0"
         stop-color="#000" />
    </linearGradient>
    <linearGradient
       id="lg3-36">
      <stop
         id="stop3508-5"
         offset="0"
         stop-color="#ffe253" />
      <stop
         id="stop3510-9"
         offset="1"
         stop-color="#ffca1c" />
    </linearGradient>
    <linearGradient
       id="lg2-5">
      <stop
         id="stop3503-35"
         offset="0"
         stop-color="#fff" />
      <stop
         id="stop3505-4"
         offset="1"
         stop-opacity="0.165"
         stop-color="#fff" />
    </linearGradient>
    <linearGradient
       id="lg1-3">
      <stop
         id="stop3498-8"
         offset="0"
         stop-color="#3778ae" />
      <stop
         id="stop3500-1"
         offset="1"
         stop-color="#366c99" />
    </linearGradient>
    <radialGradient
       inkscape:collect="always"
       xlink:href="#lg4-6"
       id="radialGradient3956"
       gradientUnits="userSpaceOnUse"
       gradientTransform="matrix(1.6,0,0,0.551754,-0.183975,556.83575)"
       cx="15.115"
       cy="63.965"
       fx="15.115"
       fy="63.965"
       r="12.289" />
    <linearGradient
       inkscape:collect="always"
       xlink:href="#lg3-3"
       id="linearGradient3958"
       gradientUnits="userSpaceOnUse"
       gradientTransform="matrix(0.353878,0,0,0.353878,-16.3897,534.003)"
       x1="119.191"
       y1="89.129997"
       x2="116.965"
       y2="169.27901" />
    <linearGradient
       inkscape:collect="always"
       xlink:href="#lg2-2-7"
       id="linearGradient3960"
       gradientUnits="userSpaceOnUse"
       gradientTransform="matrix(0.353878,0,0,0.353878,-6.29697,544.05463)"
       x1="94.693001"
       y1="112.511"
       x2="94.693001"
       y2="64.053001" />
    <linearGradient
       inkscape:collect="always"
       xlink:href="#lg1-7-1"
       id="linearGradient3962"
       gradientUnits="userSpaceOnUse"
       gradientTransform="matrix(0.353878,0,0,0.353878,-17.3795,532.588)"
       x1="59.728001"
       y1="102"
       x2="142.62"
       y2="102" />
    <linearGradient
       inkscape:collect="always"
       xlink:href="#lg2-2-7"
       id="linearGradient3964"
       gradientUnits="userSpaceOnUse"
       gradientTransform="matrix(0.353878,0,0,0.353878,-17.3795,532.588)"
       x1="94.693001"
       y1="112.511"
       x2="94.693001"
       y2="64.053001" />
  </defs>
  <g
     transform="matrix(3.6110824,0,0,3.6601877,30.264261,-3366.0949)"
     id="layer1"
     inkscape:label="Layer 1">
    <path
       sodipodi:nodetypes="cccccc"
       id="path2826"
       d="m 82,930.36218 -60,0 0,115.00002 85,0 0,-90.00002 -25,-25 z"
       style="fill:url(#linearGradient3606);fill-opacity:1;fill-rule:evenodd;stroke:#808080;stroke-width:1px;stroke-linecap:butt;stroke-linejoin:round;stroke-opacity:1"
       inkscape:connector-curvature="0" />
    <path
       sodipodi:nodetypes="cccc"
       id="rect2822"
       d="m 107,955.36218 -25,-25 c 1.863343,8.33333 2.132867,16.66667 0,25 9.905529,-1.93501 17.12777,-0.56751 25,0 z"
       style="fill:url(#linearGradient3614);fill-opacity:1;fill-rule:evenodd;stroke:#808080;stroke-width:1px;stroke-linecap:butt;stroke-linejoin:round;stroke-opacity:1"
       inkscape:connector-curvature="0" />
  </g>
  <g
     id="g3093"
     transform="matrix(6.2959833,0,0,6.2959833,270.87886,-3196.7063)">
    <path
       style="fill:url(#radialGradient3956)"
       inkscape:connector-curvature="0"
       id="path3522"
       d="m 43.6618,592.1289 a 19.6618,6.7805 0 0 1 -39.3236,0 19.6618,6.7805 0 1 1 39.3236,0 z" />
    <path
       style="fill:url(#linearGradient3958)"
       inkscape:connector-curvature="0"
       id="path3524"
       d="m 34.0804,589.5795 c 0,2.7319 -2.371,4.1156 -4.7774,4.8057 -3.6202,1.0404 -6.5255,0.8811 -9.5511,0 -2.5268,-0.7362 -4.7774,-2.2402 -4.7774,-4.8057 l 0,-9.0132 c 0,-2.594 2.1621,-4.8092 4.7774,-4.8092 l 9.3984,-0.6111 c 3.1814,0 5.2606,-1.9858 5.2606,-5.245 l 0.8655,-4.3569 3.5813,0 c 2.7814,0 4.0909,2.0667 4.7774,4.8056 0.9555,3.8043 0.9978,6.6495 0,9.615 -0.9661,2.8805 -2,4.8056 -4.7774,4.8056 l -4.7773,0 -9.5512,0 0,-0.02 c 8.2424,0.02 9.5512,-3.3164 9.5512,4.8281 z" />
    <path
       style="fill:#ffffff"
       inkscape:connector-curvature="0"
       id="path3526"
       d="m 28.1104,590.1776 c 0,-0.9944 0.8033,-1.8013 1.7906,-1.8013 1,0 1.7906,0.8069 1.7906,1.8013 0,0.9979 -0.7997,1.8047 -1.7906,1.8047 -0.9873,0 -1.7906,-0.8068 -1.7906,-1.8047 z" />
    <path
       style="opacity:0.83699999;fill:url(#linearGradient3960)"
       inkscape:connector-curvature="0"
       id="path3528"
       d="m 35.2662,565.5436 0,4.2265 c -3.4111,5.9969 -9.8912,6.0086 -15.3272,6.0086 l -2.017,0.2052 c -2.8342,2.4364 -2.9244,6.3463 -2.9223,9.7756 6.2502,-6.9742 12.9174,-7.5004 16.2436,-7.4854 6.6377,0.029 9.7638,-1.6029 12.9339,-5.1939 -0.016,-0.07 0.016,-0.132 0,-0.2037 -0.1222,-0.8 -0.3362,-1.6544 -0.5601,-2.546 -0.3218,-1.2839 -0.7428,-2.4141 -1.4257,-3.2589 -0.016,-0.016 -0.038,-0.034 -0.051,-0.05 0,0 -0.042,0 -0.05,0 -0.023,-0.028 -0.028,-0.075 -0.05,-0.1011 -0.047,-0.034 -0.052,-0.07 -0.101,-0.101 -0.016,-0.016 -0.039,0.016 -0.05,0 -0.7241,-0.4693 -1.6036,-0.8195 -2.4952,-0.9676 -0.8081,-0.1336 -1.6192,-0.2354 -2.4442,-0.3055 l -0.5092,0 -1.1711,0 z" />
    <path
       style="fill:none;stroke:#bb9400;stroke-width:1.63"
       inkscape:connector-curvature="0"
       id="path3530"
       d="m 34.559,589.579 c 0,2.732 -2.8497,4.116 -5.256,4.806 -3.62,1.04 -6.525,0.881 -9.551,0 -2.527,-0.736 -4.801,-2.24 -4.805,-4.805 l -0.016,-9.258 c -0.01,-3.073 2.302,-5.01 4.849,-5 l 8.4667,0.015 c 3.25,0 6.41,-3.3 6.401,-6.55 l 0,-3.237 4.21,0 c 2.7814,0 4.09,2.067 4.777,4.806 0.956,3.804 1,6.649 0,9.615 -0.966,2.88 -2,5.1476 -4.777,5.148 l -4.3,0 -10.03,0 0,-0.02 10.03,0.034 z" />
    <path
       style="opacity:0.38399999;fill:#ffffff"
       inkscape:connector-curvature="0"
       id="path3532"
       d="m 35.4653,566.3584 0,2.3933 c 0,3.7245 -3.4965,7.3757 -7.4809,7.3757 l -8.2491,0 c -2.8506,0 -4.0184,2.1569 -4.0042,4.4379 l 0.056,9.0129 c 0.01,1.0446 0.4,1.8235 1.148,2.4951 0.748,0.6715 1.8726,1.183 3.0553,1.5277 2.9164,0.8492 5.576,1.0022 9.0638,0 1.1327,-0.3248 2.6394,-0.9401 3.3976,-1.5964 0.7581,-0.6565 1.3077,-1.2961 1.3077,-2.4264 l 0,-3.6298 -10.052,0 0,-1.6795 15.1743,0.05 c 1.2008,0 1.788,-0.4724 2.3844,-1.1633 0.5964,-0.691 1.1149,-2.0469 1.5874,-3.456 0.9456,-2.8096 0.9336,-5.4491 0,-9.1658 -0.3252,-1.2978 -0.7976,-2.3461 -1.4257,-3.0552 -0.628,-0.7091 -1.357,-1.1202 -2.5461,-1.1202 z m 1.6294,1.6294 1.7867,0 c 0.5202,0 1.1993,0.4194 1.324,0.5602 0.3625,0.4093 0.78,1.2386 1.0694,2.3932 0.8895,3.5416 0.8915,5.7515 0.05,8.2491 -0.4517,1.347 -0.9205,2.6142 -1.2729,3 -0.3184,0.3395 -1,0.5093 -1.1713,0.5093 l -4.7865,-0.051 -12.0173,0 0,4.9384 10.052,0 0,2 c 0,0.727 -0.9733,1.1789 -1.1408,1.3239 -0.4872,0.4219 -1.3508,0.8359 -2.3423,1.1202 -3.223,0.9264 -5.5,0.7859 -8.1984,0 -1.0211,-0.2975 -1.9061,-0.7339 -2.4069,-1.1595 -0.5008,-0.4256 -0.5316,-0.7741 -0.6238,-1.285 l -0.056,-9.0129 c -0.013,-2.0224 0.6457,-2.8084 2.3748,-2.8084 l 8.2491,0 c 4.9233,0 9.1103,-4.3502 9.1103,-9.0052 1e-4,-0.2574 -10e-5,-0.5149 -10e-5,-0.7723 z" />
    <path
       style="fill:url(#linearGradient3962)"
       inkscape:connector-curvature="0"
       id="path3534"
       d="m 13.9847,559.3199 c 0,-2.7319 0.7324,-4.2182 4.7772,-4.926 2.7462,-0.4813 6.2673,-0.5414 9.5513,0 2.5939,0.4282 4.7774,2.3604 4.7774,4.926 l 0,9.0134 c 0,2.6434 -2.1198,4.8091 -4.7774,4.8091 l -8.6621,0.4788 c -3.2414,0 -6.589,2.8321 -6.589,5.957 l -0.2736,3.777 -3.284,0 c -2.7779,0 -4.3951,-2.0029 -5.0745,-4.8056 -0.9166,-3.7651 -0.8776,-6.0088 0,-9.6147 0.7608,-3.1461 3.192,-4.8058 5.7,-4.8058 l 3.5848,0 c 0,0 8.9448,-0.035 0,-0.032 l 0,-4.7771 0,0 z" />
    <path
       style="fill:#ffffff"
       inkscape:connector-curvature="0"
       id="path3536"
       d="m 16.3733,558.7218 c 0,-1 0.8,-1.8048 1.7906,-1.8048 0.9873,0 1.7907,0.8068 1.7907,1.8048 0,0.9944 -0.8034,1.8012 -1.7907,1.8012 -0.9908,0 -1.7906,-0.8068 -1.7906,-1.8012 z" />
    <path
       style="opacity:0.37700004;fill:url(#linearGradient3964)"
       inkscape:connector-curvature="0"
       id="path3538"
       d="m 22.7173,553.9955 c -1.4134,0.0342 -2.7704,0.1968 -3.9718,0.4073 -4.0448,0.7078 -4.7355,2.2074 -4.7355,4.9393 l -0.2952,4.787 -3.3203,-3e-4 c -2.7779,0 -5.1968,1.6406 -5.9576,4.7864 -0.5165,2.1225 -0.7504,3.7842 -0.6621,5.5504 6.2924,-7.1319 13.0442,-7.6531 16.3965,-7.638 6.6376,0.029 9.7637,-1.6029 12.9338,-5.1939 l 0,-2.2914 c 0,-2.5655 -2.1926,-4.511 -4.7865,-4.9392 -1.8472,-0.3048 -3.7841,-0.4516 -5.6013,-0.4076 z" />
    <path
       style="fill:none;stroke:#274e70;stroke-width:1.63"
       inkscape:connector-curvature="0"
       id="path3540"
       d="m 18.696,554.6271 c 3.6201,-1.0404 6.5255,-0.8811 9.551,0 2.5268,0.7361 4.7787,2.24 4.7774,4.8057 l 0,9.7315 c 0,1.3662 -1.9746,4.5293 -4.7726,4.5293 l -8.8988,0 c -2.4983,0 -5.997,2.7217 -5.997,5.981 l 0,3.7937 -4.21,0 c -2.7815,0 -4.0909,-2.0667 -4.7774,-4.8058 -0.9555,-3.8041 -1,-6.6493 0,-9.6148 0.9661,-2.8806 2,-5.1477 4.7774,-5.1477 l 4.2985,0 10.03,0 0,0.019 -10.03,-0.034 0.019,-4.8733 c -0.026,-1.9965 2.4146,-3.5524 5.2323,-4.3845 z" />
    <path
       style="opacity:0.16499999;fill:#ffffff"
       inkscape:connector-curvature="0"
       id="path3542"
       d="m 12.5337,582.6538 0,-2.796 c 0,-3.7246 3.3953,-7.0287 7.0461,-7.0287 l 8.6839,0 c 2.1549,0 4.024,-2.2411 4.0042,-4.3821 l -0.0834,-9.013 c -0.0097,-1.0445 -0.3722,-1.8235 -1.1203,-2.4951 -0.7479,-0.6716 -1.8726,-1.1831 -3.0552,-1.5276 -2.9166,-0.8494 -5.5762,-1.0023 -9.0639,0 -1.1326,0.3248 -2.6396,0.94 -3.3976,1.5964 -0.7582,0.6564 -1.3076,1.296 -1.3076,2.4263 l 0,3.6298 10.0519,0 0,1.6804 -15.1743,-0.051 c -1.2,0 -1.788,0.4724 -2.3844,1.1634 -0.5964,0.6908 -1.1149,2.0467 -1.5874,3.4559 -0.9456,2.8096 -0.9335,5.449 0,9.1657 0.3252,1.2978 0.7976,2.3461 1.4258,3.0552 0.628,0.7092 1.357,1.1203 2.546,1.1203 l 3.4162,0 z m -1.6295,-1.6295 -1.7867,0 c -0.52,0 -1.2,-0.4194 -1.3239,-0.56 -0.3626,-0.4094 -0.7801,-1.2388 -1.0695,-2.3934 -0.8895,-3.5415 -0.8914,-5.7513 -0.0505,-8.2491 0.4517,-1.3468 0.9205,-2.6141 1.273,-2.9899 0.3184,-0.3393 0.9909,-0.5092 1.1712,-0.5092 l 16.8038,0.051 0,-4.9394 -10.0519,0 0,-2 c 0,-0.727 0.9732,-1.1789 1.1407,-1.3239 0.4873,-0.4219 1.3509,-0.8359 2.3424,-1.12 3.2229,-0.9262 5.5,-0.7858 8.1983,0 1.0212,0.2975 1.9061,0.7339 2.3932,1.1712 0.1733,0.1352 0.2646,0.2973 0.4078,0.4582 0.1987,0.237 0.1552,0.55023 0.2011,0.8147 l 0,9.013 c 0,1.2357 -1.0565,2.7527 -2.2913,2.7527 l -8.6839,0 c -4.5897,0 -8.6756,4.0029 -8.6756,8.6581 0,0.3875 0,1.166 0,1.166 z" />
  </g>
</svg>
